[
  {
    "start": 2.196,
    "pitch": 58,
    "velocity": 60
  },
  {
    "start": 2.219,
    "pitch": 62,
    "velocity": 51
  },
  {
    "start": 2.498,
    "pitch": 64,
    "velocity": 53
  },
  {
    "start": 4.345,
    "pitch": 67,
    "velocity": 35
  },
  {
    "start": 5.61,
    "pitch": 65,
    "velocity": 76
  },
  {
    "start": 8.48,
    "pitch": 58,
    "velocity": 60
  },
  {
    "start": 10.084,
    "pitch": 58,
    "velocity": 65
  },
  {
    "start": 12.186,
    "pitch": 58,
    "velocity": 71
  },
  {
    "start": 12.616,
    "pitch": 58,
    "velocity": 70
  },
  {
    "start": 12.802,
    "pitch": 60,
    "velocity": 61
  },
  {
    "start": 14.893,
    "pitch": 58,
    "velocity": 64
  },
  {
    "start": 16.508,
    "pitch": 58,
    "velocity": 69
  },
  {
    "start": 19.064,
    "pitch": 58,
    "velocity": 70
  },
  {
    "start": 19.655,
    "pitch": 36,
    "velocity": 69
  },
  {
    "start": 19.866,
    "pitch": 36,
    "velocity": 74
  },
  {
    "start": 21.865,
    "pitch": 63,
    "velocity": 82
  },
  {
    "start": 22.084,
    "pitch": 63,
    "velocity": 90
  },
  {
    "start": 22.166,
    "pitch": 51,
    "velocity": 37
  },
  {
    "start": 22.538,
    "pitch": 34,
    "velocity": 58
  },
  {
    "start": 22.932,
    "pitch": 36,
    "velocity": 71
  },
  {
    "start": 25.07,
    "pitch": 58,
    "velocity": 72
  },
  {
    "start": 25.499,
    "pitch": 58,
    "velocity": 70
  },
  {
    "start": 25.708,
    "pitch": 60,
    "velocity": 63
  },
  {
    "start": 26.162,
    "pitch": 36,
    "velocity": 81
  },
  {
    "start": 26.185,
    "pitch": 63,
    "velocity": 64
  },
  {
    "start": 26.302,
    "pitch": 36,
    "velocity": 76
  },
  {
    "start": 27.033,
    "pitch": 63,
    "velocity": 50
  },
  {
    "start": 27.905,
    "pitch": 63,
    "velocity": 70
  },
  {
    "start": 28.091,
    "pitch": 61,
    "velocity": 28
  },
  {
    "start": 28.358,
    "pitch": 63,
    "velocity": 74
  },
  {
    "start": 28.984,
    "pitch": 34,
    "velocity": 47
  },
  {
    "start": 29.31,
    "pitch": 43,
    "velocity": 39
  },
  {
    "start": 29.379,
    "pitch": 36,
    "velocity": 79
  },
  {
    "start": 29.762,
    "pitch": 63,
    "velocity": 54
  },
  {
    "start": 30.135,
    "pitch": 63,
    "velocity": 61
  },
  {
    "start": 30.345,
    "pitch": 63,
    "velocity": 86
  },
  {
    "start": 30.53,
    "pitch": 63,
    "velocity": 45
  },
  {
    "start": 32.11,
    "pitch": 36,
    "velocity": 34
  },
  {
    "start": 32.169,
    "pitch": 63,
    "velocity": 56
  },
  {
    "start": 32.656,
    "pitch": 44,
    "velocity": 55
  },
  {
    "start": 32.656,
    "pitch": 68,
    "velocity": 61
  },
  {
    "start": 32.656,
    "pitch": 32,
    "velocity": 63
  },
  {
    "start": 33.26,
    "pitch": 32,
    "velocity": 65
  },
  {
    "start": 33.342,
    "pitch": 67,
    "velocity": 72
  },
  {
    "start": 33.539,
    "pitch": 67,
    "velocity": 72
  },
  {
    "start": 34.248,
    "pitch": 62,
    "velocity": 53
  },
  {
    "start": 34.248,
    "pitch": 34,
    "velocity": 68
  },
  {
    "start": 34.701,
    "pitch": 34,
    "velocity": 40
  },
  {
    "start": 34.864,
    "pitch": 34,
    "velocity": 62
  },
  {
    "start": 34.968,
    "pitch": 63,
    "velocity": 52
  },
  {
    "start": 35.514,
    "pitch": 34,
    "velocity": 61
  },
  {
    "start": 35.851,
    "pitch": 48,
    "velocity": 53
  },
  {
    "start": 35.898,
    "pitch": 67,
    "velocity": 61
  },
  {
    "start": 36.223,
    "pitch": 67,
    "velocity": 45
  },
  {
    "start": 36.455,
    "pitch": 48,
    "velocity": 42
  },
  {
    "start": 36.571,
    "pitch": 65,
    "velocity": 59
  },
  {
    "start": 37.175,
    "pitch": 65,
    "velocity": 69
  },
  {
    "start": 37.373,
    "pitch": 39,
    "velocity": 54
  },
  {
    "start": 37.442,
    "pitch": 27,
    "velocity": 66
  },
  {
    "start": 37.709,
    "pitch": 27,
    "velocity": 57
  },
  {
    "start": 37.792,
    "pitch": 63,
    "velocity": 45
  },
  {
    "start": 38.058,
    "pitch": 51,
    "velocity": 41
  },
  {
    "start": 38.082,
    "pitch": 27,
    "velocity": 51
  },
  {
    "start": 38.315,
    "pitch": 67,
    "velocity": 63
  },
  {
    "start": 38.988,
    "pitch": 44,
    "velocity": 42
  },
  {
    "start": 39.034,
    "pitch": 32,
    "velocity": 58
  },
  {
    "start": 39.615,
    "pitch": 68,
    "velocity": 48
  },
  {
    "start": 39.696,
    "pitch": 44,
    "velocity": 50
  },
  {
    "start": 39.707,
    "pitch": 32,
    "velocity": 61
  },
  {
    "start": 39.79,
    "pitch": 67,
    "velocity": 68
  },
  {
    "start": 40.358,
    "pitch": 32,
    "velocity": 69
  },
  {
    "start": 40.394,
    "pitch": 67,
    "velocity": 73
  },
  {
    "start": 40.683,
    "pitch": 34,
    "velocity": 72
  },
  {
    "start": 40.834,
    "pitch": 34,
    "velocity": 73
  },
  {
    "start": 41.392,
    "pitch": 34,
    "velocity": 63
  },
  {
    "start": 41.927,
    "pitch": 34,
    "velocity": 48
  },
  {
    "start": 42.31,
    "pitch": 48,
    "velocity": 53
  },
  {
    "start": 42.357,
    "pitch": 67,
    "velocity": 48
  },
  {
    "start": 42.392,
    "pitch": 24,
    "velocity": 44
  },
  {
    "start": 42.647,
    "pitch": 67,
    "velocity": 54
  },
  {
    "start": 42.809,
    "pitch": 48,
    "velocity": 46
  },
  {
    "start": 43.03,
    "pitch": 67,
    "velocity": 74
  },
  {
    "start": 43.414,
    "pitch": 63,
    "velocity": 42
  },
  {
    "start": 43.518,
    "pitch": 24,
    "velocity": 47
  },
  {
    "start": 43.832,
    "pitch": 70,
    "velocity": 89
  },
  {
    "start": 44.227,
    "pitch": 63,
    "velocity": 96
  },
  {
    "start": 44.414,
    "pitch": 62,
    "velocity": 105
  },
  {
    "start": 44.646,
    "pitch": 62,
    "velocity": 90
  },
  {
    "start": 45.041,
    "pitch": 63,
    "velocity": 73
  },
  {
    "start": 45.191,
    "pitch": 62,
    "velocity": 40
  },
  {
    "start": 45.493,
    "pitch": 36,
    "velocity": 35
  },
  {
    "start": 47.154,
    "pitch": 58,
    "velocity": 55
  },
  {
    "start": 48.328,
    "pitch": 46,
    "velocity": 37
  },
  {
    "start": 48.619,
    "pitch": 43,
    "velocity": 44
  },
  {
    "start": 48.746,
    "pitch": 48,
    "velocity": 63
  },
  {
    "start": 50.838,
    "pitch": 46,
    "velocity": 35
  },
  {
    "start": 50.872,
    "pitch": 58,
    "velocity": 75
  },
  {
    "start": 51.291,
    "pitch": 58,
    "velocity": 69
  },
  {
    "start": 51.93,
    "pitch": 48,
    "velocity": 56
  },
  {
    "start": 53.544,
    "pitch": 58,
    "velocity": 70
  },
  {
    "start": 55.077,
    "pitch": 55,
    "velocity": 41
  },
  {
    "start": 55.252,
    "pitch": 36,
    "velocity": 64
  },
  {
    "start": 57.284,
    "pitch": 58,
    "velocity": 62
  },
  {
    "start": 58.366,
    "pitch": 36,
    "velocity": 67
  },
  {
    "start": 60.515,
    "pitch": 62,
    "velocity": 63
  },
  {
    "start": 61.223,
    "pitch": 34,
    "velocity": 59
  },
  {
    "start": 61.596,
    "pitch": 36,
    "velocity": 71
  },
  {
    "start": 61.77,
    "pitch": 36,
    "velocity": 70
  },
  {
    "start": 64.755,
    "pitch": 36,
    "velocity": 70
  },
  {
    "start": 65.139,
    "pitch": 62,
    "velocity": 65
  },
  {
    "start": 66.545,
    "pitch": 46,
    "velocity": 59
  },
  {
    "start": 66.568,
    "pitch": 63,
    "velocity": 86
  },
  {
    "start": 66.8,
    "pitch": 60,
    "velocity": 67
  },
  {
    "start": 66.962,
    "pitch": 62,
    "velocity": 78
  },
  {
    "start": 66.974,
    "pitch": 43,
    "velocity": 66
  },
  {
    "start": 67.125,
    "pitch": 43,
    "velocity": 78
  },
  {
    "start": 67.183,
    "pitch": 62,
    "velocity": 72
  },
  {
    "start": 67.95,
    "pitch": 43,
    "velocity": 31
  },
  {
    "start": 67.962,
    "pitch": 55,
    "velocity": 39
  },
  {
    "start": 68.031,
    "pitch": 36,
    "velocity": 72
  },
  {
    "start": 68.775,
    "pitch": 62,
    "velocity": 48
  },
  {
    "start": 69.24,
    "pitch": 63,
    "velocity": 59
  },
  {
    "start": 70.773,
    "pitch": 36,
    "velocity": 37
  },
  {
    "start": 70.866,
    "pitch": 63,
    "velocity": 65
  },
  {
    "start": 71.296,
    "pitch": 44,
    "velocity": 52
  },
  {
    "start": 71.307,
    "pitch": 68,
    "velocity": 56
  },
  {
    "start": 71.319,
    "pitch": 32,
    "velocity": 70
  },
  {
    "start": 71.61,
    "pitch": 68,
    "velocity": 56
  },
  {
    "start": 71.935,
    "pitch": 32,
    "velocity": 68
  },
  {
    "start": 72.062,
    "pitch": 67,
    "velocity": 63
  },
  {
    "start": 72.191,
    "pitch": 51,
    "velocity": 58
  },
  {
    "start": 72.202,
    "pitch": 67,
    "velocity": 68
  },
  {
    "start": 72.608,
    "pitch": 67,
    "velocity": 64
  },
  {
    "start": 73.003,
    "pitch": 34,
    "velocity": 62
  },
  {
    "start": 73.247,
    "pitch": 62,
    "velocity": 47
  },
  {
    "start": 73.736,
    "pitch": 51,
    "velocity": 39
  },
  {
    "start": 73.805,
    "pitch": 63,
    "velocity": 72
  },
  {
    "start": 74.026,
    "pitch": 65,
    "velocity": 46
  },
  {
    "start": 74.096,
    "pitch": 34,
    "velocity": 72
  },
  {
    "start": 74.56,
    "pitch": 36,
    "velocity": 44
  },
  {
    "start": 74.665,
    "pitch": 24,
    "velocity": 42
  },
  {
    "start": 74.793,
    "pitch": 55,
    "velocity": 41
  },
  {
    "start": 74.816,
    "pitch": 67,
    "velocity": 55
  },
  {
    "start": 75.188,
    "pitch": 65,
    "velocity": 66
  },
  {
    "start": 75.396,
    "pitch": 65,
    "velocity": 73
  },
  {
    "start": 75.908,
    "pitch": 65,
    "velocity": 56
  },
  {
    "start": 75.978,
    "pitch": 27,
    "velocity": 60
  },
  {
    "start": 76.036,
    "pitch": 39,
    "velocity": 49
  },
  {
    "start": 76.547,
    "pitch": 63,
    "velocity": 59
  },
  {
    "start": 76.756,
    "pitch": 27,
    "velocity": 62
  },
  {
    "start": 76.953,
    "pitch": 67,
    "velocity": 49
  },
  {
    "start": 77.185,
    "pitch": 27,
    "velocity": 60
  },
  {
    "start": 77.686,
    "pitch": 32,
    "velocity": 79
  },
  {
    "start": 77.732,
    "pitch": 68,
    "velocity": 71
  },
  {
    "start": 77.999,
    "pitch": 32,
    "velocity": 60
  },
  {
    "start": 78.406,
    "pitch": 67,
    "velocity": 64
  },
  {
    "start": 78.51,
    "pitch": 51,
    "velocity": 43
  },
  {
    "start": 78.986,
    "pitch": 32,
    "velocity": 74
  },
  {
    "start": 79.056,
    "pitch": 67,
    "velocity": 77
  },
  {
    "start": 79.3,
    "pitch": 46,
    "velocity": 57
  },
  {
    "start": 79.334,
    "pitch": 34,
    "velocity": 79
  },
  {
    "start": 79.464,
    "pitch": 34,
    "velocity": 82
  },
  {
    "start": 79.684,
    "pitch": 62,
    "velocity": 64
  },
  {
    "start": 79.707,
    "pitch": 34,
    "velocity": 67
  },
  {
    "start": 79.94,
    "pitch": 34,
    "velocity": 68
  },
  {
    "start": 80.183,
    "pitch": 51,
    "velocity": 35
  },
  {
    "start": 80.183,
    "pitch": 63,
    "velocity": 65
  },
  {
    "start": 80.671,
    "pitch": 34,
    "velocity": 63
  },
  {
    "start": 81.007,
    "pitch": 67,
    "velocity": 61
  },
  {
    "start": 81.02,
    "pitch": 24,
    "velocity": 45
  },
  {
    "start": 81.45,
    "pitch": 67,
    "velocity": 45
  },
  {
    "start": 81.554,
    "pitch": 48,
    "velocity": 47
  },
  {
    "start": 81.682,
    "pitch": 67,
    "velocity": 61
  },
  {
    "start": 82.135,
    "pitch": 24,
    "velocity": 44
  },
  {
    "start": 82.158,
    "pitch": 63,
    "velocity": 49
  },
  {
    "start": 82.588,
    "pitch": 70,
    "velocity": 77
  },
  {
    "start": 82.936,
    "pitch": 62,
    "velocity": 47
  },
  {
    "start": 83.099,
    "pitch": 62,
    "velocity": 84
  },
  {
    "start": 83.307,
    "pitch": 65,
    "velocity": 54
  },
  {
    "start": 83.831,
    "pitch": 63,
    "velocity": 53
  },
  {
    "start": 84.099,
    "pitch": 32,
    "velocity": 63
  },
  {
    "start": 84.83,
    "pitch": 44,
    "velocity": 49
  },
  {
    "start": 85.178,
    "pitch": 32,
    "velocity": 63
  },
  {
    "start": 85.493,
    "pitch": 32,
    "velocity": 68
  },
  {
    "start": 85.679,
    "pitch": 53,
    "velocity": 37
  },
  {
    "start": 86.561,
    "pitch": 46,
    "velocity": 39
  },
  {
    "start": 87.304,
    "pitch": 43,
    "velocity": 36
  },
  {
    "start": 87.41,
    "pitch": 36,
    "velocity": 48
  },
  {
    "start": 87.503,
    "pitch": 24,
    "velocity": 41
  },
  {
    "start": 88.036,
    "pitch": 58,
    "velocity": 30
  },
  {
    "start": 89.024,
    "pitch": 51,
    "velocity": 48
  },
  {
    "start": 89.047,
    "pitch": 39,
    "velocity": 52
  },
  {
    "start": 89.094,
    "pitch": 27,
    "velocity": 63
  },
  {
    "start": 89.629,
    "pitch": 27,
    "velocity": 54
  },
  {
    "start": 90.291,
    "pitch": 27,
    "velocity": 59
  },
  {
    "start": 90.569,
    "pitch": 44,
    "velocity": 44
  },
  {
    "start": 90.593,
    "pitch": 32,
    "velocity": 67
  },
  {
    "start": 90.744,
    "pitch": 32,
    "velocity": 72
  },
  {
    "start": 91.231,
    "pitch": 32,
    "velocity": 78
  },
  {
    "start": 91.277,
    "pitch": 44,
    "velocity": 45
  },
  {
    "start": 91.406,
    "pitch": 32,
    "velocity": 50
  },
  {
    "start": 91.79,
    "pitch": 32,
    "velocity": 73
  },
  {
    "start": 93.753,
    "pitch": 48,
    "velocity": 43
  },
  {
    "start": 93.834,
    "pitch": 36,
    "velocity": 51
  },
  {
    "start": 93.916,
    "pitch": 24,
    "velocity": 46
  },
  {
    "start": 95.392,
    "pitch": 27,
    "velocity": 59
  },
  {
    "start": 95.449,
    "pitch": 39,
    "velocity": 52
  },
  {
    "start": 95.96,
    "pitch": 58,
    "velocity": 43
  },
  {
    "start": 96.111,
    "pitch": 27,
    "velocity": 54
  },
  {
    "start": 97.144,
    "pitch": 31,
    "velocity": 46
  },
  {
    "start": 97.378,
    "pitch": 43,
    "velocity": 40
  },
  {
    "start": 97.656,
    "pitch": 31,
    "velocity": 59
  },
  {
    "start": 98.144,
    "pitch": 31,
    "velocity": 60
  },
  {
    "start": 98.388,
    "pitch": 43,
    "velocity": 44
  },
  {
    "start": 98.411,
    "pitch": 31,
    "velocity": 73
  },
  {
    "start": 98.631,
    "pitch": 31,
    "velocity": 97
  },
  {
    "start": 98.794,
    "pitch": 31,
    "velocity": 76
  },
  {
    "start": 99.084,
    "pitch": 31,
    "velocity": 81
  },
  {
    "start": 99.224,
    "pitch": 43,
    "velocity": 61
  },
  {
    "start": 99.365,
    "pitch": 43,
    "velocity": 61
  },
  {
    "start": 99.41,
    "pitch": 31,
    "velocity": 81
  },
  {
    "start": 99.608,
    "pitch": 31,
    "velocity": 67
  },
  {
    "start": 99.771,
    "pitch": 50,
    "velocity": 42
  },
  {
    "start": 99.922,
    "pitch": 31,
    "velocity": 55
  },
  {
    "start": 99.979,
    "pitch": 62,
    "velocity": 58
  },
  {
    "start": 100.211,
    "pitch": 63,
    "velocity": 63
  },
  {
    "start": 100.34,
    "pitch": 31,
    "velocity": 67
  },
  {
    "start": 100.351,
    "pitch": 43,
    "velocity": 53
  },
  {
    "start": 100.583,
    "pitch": 43,
    "velocity": 81
  },
  {
    "start": 100.746,
    "pitch": 43,
    "velocity": 95
  },
  {
    "start": 100.816,
    "pitch": 31,
    "velocity": 51
  },
  {
    "start": 100.885,
    "pitch": 43,
    "velocity": 85
  },
  {
    "start": 101.082,
    "pitch": 43,
    "velocity": 65
  },
  {
    "start": 101.222,
    "pitch": 43,
    "velocity": 65
  },
  {
    "start": 101.432,
    "pitch": 43,
    "velocity": 64
  },
  {
    "start": 101.56,
    "pitch": 31,
    "velocity": 59
  },
  {
    "start": 101.618,
    "pitch": 43,
    "velocity": 51
  },
  {
    "start": 101.792,
    "pitch": 43,
    "velocity": 69
  },
  {
    "start": 101.967,
    "pitch": 43,
    "velocity": 61
  },
  {
    "start": 102.199,
    "pitch": 43,
    "velocity": 84
  },
  {
    "start": 102.361,
    "pitch": 43,
    "velocity": 65
  },
  {
    "start": 102.373,
    "pitch": 31,
    "velocity": 52
  },
  {
    "start": 103.5,
    "pitch": 48,
    "velocity": 48
  },
  {
    "start": 103.511,
    "pitch": 36,
    "velocity": 61
  },
  {
    "start": 103.511,
    "pitch": 24,
    "velocity": 55
  },
  {
    "start": 104.069,
    "pitch": 48,
    "velocity": 52
  },
  {
    "start": 104.638,
    "pitch": 24,
    "velocity": 38
  },
  {
    "start": 104.951,
    "pitch": 43,
    "velocity": 31
  },
  {
    "start": 105.114,
    "pitch": 34,
    "velocity": 87
  },
  {
    "start": 105.382,
    "pitch": 34,
    "velocity": 39
  },
  {
    "start": 105.684,
    "pitch": 46,
    "velocity": 52
  },
  {
    "start": 105.719,
    "pitch": 34,
    "velocity": 86
  },
  {
    "start": 105.858,
    "pitch": 34,
    "velocity": 56
  },
  {
    "start": 106.218,
    "pitch": 34,
    "velocity": 74
  },
  {
    "start": 106.393,
    "pitch": 34,
    "velocity": 74
  },
  {
    "start": 106.718,
    "pitch": 27,
    "velocity": 69
  },
  {
    "start": 106.741,
    "pitch": 39,
    "velocity": 61
  },
  {
    "start": 106.741,
    "pitch": 70,
    "velocity": 48
  },
  {
    "start": 107.089,
    "pitch": 51,
    "velocity": 34
  },
  {
    "start": 107.24,
    "pitch": 51,
    "velocity": 58
  },
  {
    "start": 107.38,
    "pitch": 27,
    "velocity": 57
  },
  {
    "start": 107.624,
    "pitch": 51,
    "velocity": 47
  },
  {
    "start": 108.17,
    "pitch": 67,
    "velocity": 46
  },
  {
    "start": 108.217,
    "pitch": 48,
    "velocity": 62
  },
  {
    "start": 108.309,
    "pitch": 36,
    "velocity": 56
  },
  {
    "start": 108.355,
    "pitch": 24,
    "velocity": 55
  },
  {
    "start": 108.867,
    "pitch": 48,
    "velocity": 51
  },
  {
    "start": 109.006,
    "pitch": 24,
    "velocity": 47
  },
  {
    "start": 109.761,
    "pitch": 31,
    "velocity": 42
  },
  {
    "start": 109.924,
    "pitch": 48,
    "velocity": 41
  },
  {
    "start": 109.959,
    "pitch": 36,
    "velocity": 51
  },
  {
    "start": 110.005,
    "pitch": 24,
    "velocity": 49
  },
  {
    "start": 110.505,
    "pitch": 48,
    "velocity": 41
  },
  {
    "start": 111.481,
    "pitch": 70,
    "velocity": 45
  },
  {
    "start": 111.481,
    "pitch": 58,
    "velocity": 41
  },
  {
    "start": 111.655,
    "pitch": 34,
    "velocity": 72
  },
  {
    "start": 112.097,
    "pitch": 46,
    "velocity": 49
  },
  {
    "start": 112.131,
    "pitch": 34,
    "velocity": 55
  },
  {
    "start": 112.248,
    "pitch": 70,
    "velocity": 46
  },
  {
    "start": 112.817,
    "pitch": 34,
    "velocity": 69
  },
  {
    "start": 113.072,
    "pitch": 51,
    "velocity": 48
  },
  {
    "start": 113.095,
    "pitch": 39,
    "velocity": 68
  },
  {
    "start": 113.176,
    "pitch": 27,
    "velocity": 74
  },
  {
    "start": 113.2,
    "pitch": 70,
    "velocity": 45
  },
  {
    "start": 113.364,
    "pitch": 70,
    "velocity": 46
  },
  {
    "start": 113.677,
    "pitch": 51,
    "velocity": 57
  },
  {
    "start": 113.781,
    "pitch": 39,
    "velocity": 52
  },
  {
    "start": 113.804,
    "pitch": 27,
    "velocity": 54
  },
  {
    "start": 114.083,
    "pitch": 51,
    "velocity": 56
  },
  {
    "start": 114.304,
    "pitch": 27,
    "velocity": 68
  },
  {
    "start": 114.652,
    "pitch": 67,
    "velocity": 47
  },
  {
    "start": 114.745,
    "pitch": 48,
    "velocity": 50
  },
  {
    "start": 115.327,
    "pitch": 48,
    "velocity": 46
  },
  {
    "start": 115.339,
    "pitch": 36,
    "velocity": 58
  },
  {
    "start": 116.07,
    "pitch": 48,
    "velocity": 62
  },
  {
    "start": 116.14,
    "pitch": 36,
    "velocity": 62
  },
  {
    "start": 116.418,
    "pitch": 48,
    "velocity": 50
  },
  {
    "start": 116.442,
    "pitch": 24,
    "velocity": 56
  },
  {
    "start": 116.964,
    "pitch": 48,
    "velocity": 46
  },
  {
    "start": 118.056,
    "pitch": 34,
    "velocity": 76
  },
  {
    "start": 118.428,
    "pitch": 34,
    "velocity": 53
  },
  {
    "start": 118.509,
    "pitch": 46,
    "velocity": 60
  },
  {
    "start": 118.602,
    "pitch": 34,
    "velocity": 82
  },
  {
    "start": 118.893,
    "pitch": 34,
    "velocity": 67
  },
  {
    "start": 119.253,
    "pitch": 34,
    "velocity": 79
  },
  {
    "start": 119.555,
    "pitch": 39,
    "velocity": 66
  },
  {
    "start": 119.555,
    "pitch": 51,
    "velocity": 53
  },
  {
    "start": 119.695,
    "pitch": 70,
    "velocity": 42
  },
  {
    "start": 119.729,
    "pitch": 27,
    "velocity": 64
  },
  {
    "start": 119.916,
    "pitch": 51,
    "velocity": 41
  },
  {
    "start": 120.078,
    "pitch": 79,
    "velocity": 47
  },
  {
    "start": 120.124,
    "pitch": 51,
    "velocity": 67
  },
  {
    "start": 120.124,
    "pitch": 39,
    "velocity": 48
  },
  {
    "start": 120.252,
    "pitch": 27,
    "velocity": 59
  },
  {
    "start": 120.275,
    "pitch": 70,
    "velocity": 42
  },
  {
    "start": 121.217,
    "pitch": 48,
    "velocity": 70
  },
  {
    "start": 121.252,
    "pitch": 24,
    "velocity": 53
  },
  {
    "start": 121.309,
    "pitch": 67,
    "velocity": 58
  },
  {
    "start": 121.797,
    "pitch": 48,
    "velocity": 39
  },
  {
    "start": 122.065,
    "pitch": 48,
    "velocity": 41
  },
  {
    "start": 122.715,
    "pitch": 31,
    "velocity": 43
  },
  {
    "start": 123.458,
    "pitch": 24,
    "velocity": 36
  },
  {
    "start": 124.004,
    "pitch": 24,
    "velocity": 43
  },
  {
    "start": 124.295,
    "pitch": 34,
    "velocity": 49
  },
  {
    "start": 124.585,
    "pitch": 34,
    "velocity": 69
  },
  {
    "start": 124.864,
    "pitch": 34,
    "velocity": 56
  },
  {
    "start": 125.015,
    "pitch": 53,
    "velocity": 46
  },
  {
    "start": 125.015,
    "pitch": 46,
    "velocity": 47
  },
  {
    "start": 125.038,
    "pitch": 34,
    "velocity": 67
  },
  {
    "start": 125.119,
    "pitch": 70,
    "velocity": 44
  },
  {
    "start": 125.341,
    "pitch": 70,
    "velocity": 43
  },
  {
    "start": 125.643,
    "pitch": 31,
    "velocity": 56
  },
  {
    "start": 125.864,
    "pitch": 31,
    "velocity": 51
  },
  {
    "start": 125.945,
    "pitch": 36,
    "velocity": 42
  },
  {
    "start": 126.003,
    "pitch": 48,
    "velocity": 51
  },
  {
    "start": 126.003,
    "pitch": 41,
    "velocity": 55
  },
  {
    "start": 126.038,
    "pitch": 53,
    "velocity": 49
  },
  {
    "start": 126.084,
    "pitch": 29,
    "velocity": 62
  },
  {
    "start": 126.166,
    "pitch": 69,
    "velocity": 40
  },
  {
    "start": 126.398,
    "pitch": 43,
    "velocity": 48
  },
  {
    "start": 126.56,
    "pitch": 36,
    "velocity": 49
  },
  {
    "start": 126.629,
    "pitch": 53,
    "velocity": 40
  },
  {
    "start": 126.71,
    "pitch": 77,
    "velocity": 44
  },
  {
    "start": 126.757,
    "pitch": 36,
    "velocity": 71
  },
  {
    "start": 126.908,
    "pitch": 81,
    "velocity": 42
  },
  {
    "start": 126.908,
    "pitch": 53,
    "velocity": 50
  },
  {
    "start": 126.955,
    "pitch": 69,
    "velocity": 52
  },
  {
    "start": 127.27,
    "pitch": 29,
    "velocity": 66
  },
  {
    "start": 127.281,
    "pitch": 53,
    "velocity": 55
  },
  {
    "start": 127.293,
    "pitch": 41,
    "velocity": 50
  },
  {
    "start": 127.792,
    "pitch": 48,
    "velocity": 65
  },
  {
    "start": 127.803,
    "pitch": 36,
    "velocity": 62
  },
  {
    "start": 127.978,
    "pitch": 53,
    "velocity": 51
  },
  {
    "start": 128.755,
    "pitch": 31,
    "velocity": 49
  },
  {
    "start": 128.779,
    "pitch": 43,
    "velocity": 39
  },
  {
    "start": 129.302,
    "pitch": 32,
    "velocity": 95
  },
  {
    "start": 129.604,
    "pitch": 68,
    "velocity": 85
  },
  {
    "start": 129.836,
    "pitch": 68,
    "velocity": 70
  },
  {
    "start": 130.057,
    "pitch": 67,
    "velocity": 70
  },
  {
    "start": 130.197,
    "pitch": 67,
    "velocity": 60
  },
  {
    "start": 130.231,
    "pitch": 51,
    "velocity": 49
  },
  {
    "start": 130.789,
    "pitch": 46,
    "velocity": 39
  },
  {
    "start": 130.904,
    "pitch": 62,
    "velocity": 60
  },
  {
    "start": 130.917,
    "pitch": 34,
    "velocity": 85
  },
  {
    "start": 131.184,
    "pitch": 34,
    "velocity": 91
  },
  {
    "start": 131.243,
    "pitch": 62,
    "velocity": 70
  },
  {
    "start": 131.417,
    "pitch": 62,
    "velocity": 39
  },
  {
    "start": 131.789,
    "pitch": 63,
    "velocity": 82
  },
  {
    "start": 131.997,
    "pitch": 65,
    "velocity": 58
  },
  {
    "start": 132.416,
    "pitch": 48,
    "velocity": 48
  },
  {
    "start": 132.531,
    "pitch": 36,
    "velocity": 52
  },
  {
    "start": 132.578,
    "pitch": 24,
    "velocity": 64
  },
  {
    "start": 132.775,
    "pitch": 67,
    "velocity": 68
  },
  {
    "start": 133.03,
    "pitch": 67,
    "velocity": 55
  },
  {
    "start": 133.241,
    "pitch": 65,
    "velocity": 80
  },
  {
    "start": 133.38,
    "pitch": 65,
    "velocity": 61
  },
  {
    "start": 133.415,
    "pitch": 68,
    "velocity": 50
  },
  {
    "start": 133.798,
    "pitch": 65,
    "velocity": 67
  },
  {
    "start": 134.089,
    "pitch": 27,
    "velocity": 71
  },
  {
    "start": 134.17,
    "pitch": 63,
    "velocity": 59
  },
  {
    "start": 134.553,
    "pitch": 63,
    "velocity": 67
  },
  {
    "start": 134.901,
    "pitch": 39,
    "velocity": 45
  },
  {
    "start": 135.262,
    "pitch": 31,
    "velocity": 56
  },
  {
    "start": 135.633,
    "pitch": 44,
    "velocity": 64
  },
  {
    "start": 135.68,
    "pitch": 32,
    "velocity": 70
  },
  {
    "start": 136.005,
    "pitch": 68,
    "velocity": 44
  },
  {
    "start": 136.238,
    "pitch": 32,
    "velocity": 66
  },
  {
    "start": 136.434,
    "pitch": 32,
    "velocity": 71
  },
  {
    "start": 136.458,
    "pitch": 51,
    "velocity": 57
  },
  {
    "start": 136.47,
    "pitch": 67,
    "velocity": 68
  },
  {
    "start": 136.992,
    "pitch": 32,
    "velocity": 78
  },
  {
    "start": 137.039,
    "pitch": 67,
    "velocity": 73
  },
  {
    "start": 137.295,
    "pitch": 46,
    "velocity": 44
  },
  {
    "start": 137.353,
    "pitch": 34,
    "velocity": 49
  },
  {
    "start": 137.783,
    "pitch": 46,
    "velocity": 48
  },
  {
    "start": 138.178,
    "pitch": 63,
    "velocity": 63
  },
  {
    "start": 138.433,
    "pitch": 31,
    "velocity": 46
  },
  {
    "start": 138.642,
    "pitch": 34,
    "velocity": 47
  },
  {
    "start": 139.014,
    "pitch": 67,
    "velocity": 61
  },
  {
    "start": 139.445,
    "pitch": 67,
    "velocity": 39
  },
  {
    "start": 139.526,
    "pitch": 48,
    "velocity": 52
  },
  {
    "start": 139.653,
    "pitch": 67,
    "velocity": 58
  },
  {
    "start": 140.059,
    "pitch": 63,
    "velocity": 40
  },
  {
    "start": 140.524,
    "pitch": 27,
    "velocity": 67
  },
  {
    "start": 141.071,
    "pitch": 62,
    "velocity": 61
  },
  {
    "start": 141.199,
    "pitch": 27,
    "velocity": 58
  },
  {
    "start": 141.373,
    "pitch": 43,
    "velocity": 39
  },
  {
    "start": 141.721,
    "pitch": 27,
    "velocity": 44
  },
  {
    "start": 142.104,
    "pitch": 32,
    "velocity": 83
  },
  {
    "start": 142.185,
    "pitch": 44,
    "velocity": 68
  },
  {
    "start": 142.325,
    "pitch": 32,
    "velocity": 68
  },
  {
    "start": 142.534,
    "pitch": 44,
    "velocity": 54
  },
  {
    "start": 142.627,
    "pitch": 51,
    "velocity": 46
  },
  {
    "start": 142.708,
    "pitch": 44,
    "velocity": 45
  },
  {
    "start": 143.488,
    "pitch": 32,
    "velocity": 67
  },
  {
    "start": 144.266,
    "pitch": 53,
    "velocity": 47
  },
  {
    "start": 144.37,
    "pitch": 34,
    "velocity": 55
  },
  {
    "start": 144.404,
    "pitch": 46,
    "velocity": 56
  },
  {
    "start": 144.578,
    "pitch": 46,
    "velocity": 42
  },
  {
    "start": 145.021,
    "pitch": 34,
    "velocity": 40
  },
  {
    "start": 145.427,
    "pitch": 24,
    "velocity": 50
  },
  {
    "start": 145.439,
    "pitch": 36,
    "velocity": 51
  },
  {
    "start": 145.555,
    "pitch": 55,
    "velocity": 36
  },
  {
    "start": 145.939,
    "pitch": 32,
    "velocity": 46
  },
  {
    "start": 145.95,
    "pitch": 48,
    "velocity": 45
  },
  {
    "start": 146.972,
    "pitch": 27,
    "velocity": 65
  },
  {
    "start": 146.983,
    "pitch": 51,
    "velocity": 52
  },
  {
    "start": 147.02,
    "pitch": 39,
    "velocity": 59
  },
  {
    "start": 147.542,
    "pitch": 39,
    "velocity": 38
  },
  {
    "start": 147.623,
    "pitch": 27,
    "velocity": 53
  },
  {
    "start": 148.308,
    "pitch": 63,
    "velocity": 51
  },
  {
    "start": 148.505,
    "pitch": 32,
    "velocity": 63
  },
  {
    "start": 148.947,
    "pitch": 51,
    "velocity": 38
  },
  {
    "start": 149.018,
    "pitch": 44,
    "velocity": 51
  },
  {
    "start": 149.25,
    "pitch": 32,
    "velocity": 70
  },
  {
    "start": 149.819,
    "pitch": 44,
    "velocity": 52
  },
  {
    "start": 149.934,
    "pitch": 32,
    "velocity": 62
  },
  {
    "start": 150.236,
    "pitch": 46,
    "velocity": 60
  },
  {
    "start": 150.864,
    "pitch": 34,
    "velocity": 35
  },
  {
    "start": 151.875,
    "pitch": 48,
    "velocity": 43
  },
  {
    "start": 151.875,
    "pitch": 36,
    "velocity": 55
  },
  {
    "start": 151.875,
    "pitch": 24,
    "velocity": 48
  },
  {
    "start": 152.536,
    "pitch": 24,
    "velocity": 39
  },
  {
    "start": 152.536,
    "pitch": 48,
    "velocity": 41
  },
  {
    "start": 153.002,
    "pitch": 60,
    "velocity": 51
  },
  {
    "start": 153.432,
    "pitch": 27,
    "velocity": 57
  },
  {
    "start": 153.467,
    "pitch": 51,
    "velocity": 64
  },
  {
    "start": 153.595,
    "pitch": 27,
    "velocity": 68
  },
  {
    "start": 153.873,
    "pitch": 62,
    "velocity": 50
  },
  {
    "start": 153.931,
    "pitch": 58,
    "velocity": 40
  },
  {
    "start": 154.977,
    "pitch": 44,
    "velocity": 58
  },
  {
    "start": 155.035,
    "pitch": 32,
    "velocity": 75
  },
  {
    "start": 155.383,
    "pitch": 31,
    "velocity": 51
  },
  {
    "start": 155.534,
    "pitch": 31,
    "velocity": 49
  },
  {
    "start": 155.767,
    "pitch": 41,
    "velocity": 48
  },
  {
    "start": 155.801,
    "pitch": 29,
    "velocity": 47
  },
  {
    "start": 156.301,
    "pitch": 51,
    "velocity": 57
  },
  {
    "start": 157.394,
    "pitch": 50,
    "velocity": 43
  },
  {
    "start": 157.823,
    "pitch": 27,
    "velocity": 55
  },
  {
    "start": 158.159,
    "pitch": 43,
    "velocity": 48
  },
  {
    "start": 158.229,
    "pitch": 36,
    "velocity": 41
  },
  {
    "start": 158.38,
    "pitch": 24,
    "velocity": 45
  },
  {
    "start": 158.845,
    "pitch": 48,
    "velocity": 57
  },
  {
    "start": 158.879,
    "pitch": 36,
    "velocity": 39
  },
  {
    "start": 159.821,
    "pitch": 51,
    "velocity": 52
  },
  {
    "start": 159.914,
    "pitch": 27,
    "velocity": 70
  },
  {
    "start": 160.332,
    "pitch": 62,
    "velocity": 45
  },
  {
    "start": 160.344,
    "pitch": 46,
    "velocity": 39
  },
  {
    "start": 160.495,
    "pitch": 62,
    "velocity": 53
  },
  {
    "start": 160.541,
    "pitch": 27,
    "velocity": 56
  },
  {
    "start": 160.995,
    "pitch": 27,
    "velocity": 61
  },
  {
    "start": 161.414,
    "pitch": 32,
    "velocity": 80
  },
  {
    "start": 161.436,
    "pitch": 44,
    "velocity": 52
  },
  {
    "start": 161.633,
    "pitch": 32,
    "velocity": 65
  },
  {
    "start": 162.876,
    "pitch": 32,
    "velocity": 50
  },
  {
    "start": 164.258,
    "pitch": 31,
    "velocity": 56
  },
  {
    "start": 164.364,
    "pitch": 34,
    "velocity": 30
  },
  {
    "start": 164.538,
    "pitch": 43,
    "velocity": 37
  },
  {
    "start": 164.642,
    "pitch": 36,
    "velocity": 53
  },
  {
    "start": 164.781,
    "pitch": 48,
    "velocity": 46
  },
  {
    "start": 164.804,
    "pitch": 24,
    "velocity": 58
  },
  {
    "start": 166.339,
    "pitch": 27,
    "velocity": 78
  },
  {
    "start": 166.35,
    "pitch": 39,
    "velocity": 55
  },
  {
    "start": 166.582,
    "pitch": 27,
    "velocity": 58
  },
  {
    "start": 166.99,
    "pitch": 27,
    "velocity": 46
  },
  {
    "start": 167.222,
    "pitch": 58,
    "velocity": 63
  }
]