[
  {
    "start": 2.079,
    "pitch": 36,
    "velocity": 58
  },
  {
    "start": 2.579,
    "pitch": 36,
    "velocity": 58
  },
  {
    "start": 3.031,
    "pitch": 36,
    "velocity": 72
  },
  {
    "start": 3.438,
    "pitch": 36,
    "velocity": 55
  },
  {
    "start": 4.066,
    "pitch": 31,
    "velocity": 63
  },
  {
    "start": 4.298,
    "pitch": 31,
    "velocity": 52
  },
  {
    "start": 4.925,
    "pitch": 41,
    "velocity": 39
  },
  {
    "start": 4.948,
    "pitch": 29,
    "velocity": 54
  },
  {
    "start": 5.68,
    "pitch": 40,
    "velocity": 47
  },
  {
    "start": 5.935,
    "pitch": 36,
    "velocity": 73
  },
  {
    "start": 6.39,
    "pitch": 36,
    "velocity": 79
  },
  {
    "start": 6.9,
    "pitch": 36,
    "velocity": 74
  },
  {
    "start": 7.225,
    "pitch": 36,
    "velocity": 52
  },
  {
    "start": 7.841,
    "pitch": 31,
    "velocity": 61
  },
  {
    "start": 8.109,
    "pitch": 31,
    "velocity": 57
  },
  {
    "start": 8.55,
    "pitch": 31,
    "velocity": 58
  },
  {
    "start": 8.91,
    "pitch": 29,
    "velocity": 39
  },
  {
    "start": 11.674,
    "pitch": 43,
    "velocity": 52
  },
  {
    "start": 12.315,
    "pitch": 43,
    "velocity": 45
  },
  {
    "start": 12.547,
    "pitch": 41,
    "velocity": 50
  },
  {
    "start": 12.674,
    "pitch": 29,
    "velocity": 39
  },
  {
    "start": 13.58,
    "pitch": 36,
    "velocity": 42
  },
  {
    "start": 17.332,
    "pitch": 30,
    "velocity": 43
  },
  {
    "start": 17.565,
    "pitch": 58,
    "velocity": 85
  },
  {
    "start": 17.797,
    "pitch": 60,
    "velocity": 74
  },
  {
    "start": 18.1,
    "pitch": 58,
    "velocity": 82
  },
  {
    "start": 18.274,
    "pitch": 60,
    "velocity": 72
  },
  {
    "start": 18.518,
    "pitch": 58,
    "velocity": 71
  },
  {
    "start": 18.75,
    "pitch": 60,
    "velocity": 58
  },
  {
    "start": 19.029,
    "pitch": 58,
    "velocity": 82
  },
  {
    "start": 19.238,
    "pitch": 60,
    "velocity": 78
  },
  {
    "start": 19.749,
    "pitch": 60,
    "velocity": 85
  },
  {
    "start": 20.179,
    "pitch": 62,
    "velocity": 60
  },
  {
    "start": 20.47,
    "pitch": 58,
    "velocity": 60
  },
  {
    "start": 20.644,
    "pitch": 58,
    "velocity": 75
  },
  {
    "start": 20.91,
    "pitch": 60,
    "velocity": 64
  },
  {
    "start": 21.061,
    "pitch": 60,
    "velocity": 67
  },
  {
    "start": 21.41,
    "pitch": 58,
    "velocity": 83
  },
  {
    "start": 21.666,
    "pitch": 60,
    "velocity": 76
  },
  {
    "start": 21.933,
    "pitch": 58,
    "velocity": 80
  },
  {
    "start": 22.084,
    "pitch": 60,
    "velocity": 75
  },
  {
    "start": 22.352,
    "pitch": 58,
    "velocity": 75
  },
  {
    "start": 22.549,
    "pitch": 60,
    "velocity": 71
  },
  {
    "start": 23.269,
    "pitch": 30,
    "velocity": 47
  },
  {
    "start": 23.304,
    "pitch": 58,
    "velocity": 77
  },
  {
    "start": 23.512,
    "pitch": 60,
    "velocity": 74
  },
  {
    "start": 24.233,
    "pitch": 58,
    "velocity": 83
  },
  {
    "start": 24.466,
    "pitch": 58,
    "velocity": 72
  },
  {
    "start": 24.722,
    "pitch": 60,
    "velocity": 81
  },
  {
    "start": 25.185,
    "pitch": 60,
    "velocity": 63
  },
  {
    "start": 25.418,
    "pitch": 60,
    "velocity": 84
  },
  {
    "start": 25.674,
    "pitch": 60,
    "velocity": 78
  },
  {
    "start": 25.883,
    "pitch": 60,
    "velocity": 78
  },
  {
    "start": 26.14,
    "pitch": 64,
    "velocity": 79
  },
  {
    "start": 26.975,
    "pitch": 59,
    "velocity": 63
  },
  {
    "start": 27.323,
    "pitch": 59,
    "velocity": 76
  },
  {
    "start": 27.567,
    "pitch": 57,
    "velocity": 83
  },
  {
    "start": 28.056,
    "pitch": 60,
    "velocity": 79
  },
  {
    "start": 28.289,
    "pitch": 62,
    "velocity": 84
  },
  {
    "start": 28.636,
    "pitch": 64,
    "velocity": 73
  },
  {
    "start": 28.984,
    "pitch": 60,
    "velocity": 80
  },
  {
    "start": 29.229,
    "pitch": 62,
    "velocity": 63
  },
  {
    "start": 29.611,
    "pitch": 64,
    "velocity": 79
  },
  {
    "start": 29.95,
    "pitch": 60,
    "velocity": 72
  },
  {
    "start": 30.333,
    "pitch": 32,
    "velocity": 56
  },
  {
    "start": 30.53,
    "pitch": 67,
    "velocity": 72
  },
  {
    "start": 30.797,
    "pitch": 65,
    "velocity": 80
  },
  {
    "start": 31.122,
    "pitch": 64,
    "velocity": 80
  },
  {
    "start": 31.354,
    "pitch": 43,
    "velocity": 58
  },
  {
    "start": 31.354,
    "pitch": 31,
    "velocity": 53
  },
  {
    "start": 31.378,
    "pitch": 65,
    "velocity": 72
  },
  {
    "start": 31.715,
    "pitch": 64,
    "velocity": 77
  },
  {
    "start": 31.867,
    "pitch": 62,
    "velocity": 84
  },
  {
    "start": 32.261,
    "pitch": 60,
    "velocity": 80
  },
  {
    "start": 32.691,
    "pitch": 62,
    "velocity": 80
  },
  {
    "start": 33.062,
    "pitch": 62,
    "velocity": 62
  },
  {
    "start": 33.62,
    "pitch": 60,
    "velocity": 64
  },
  {
    "start": 33.97,
    "pitch": 60,
    "velocity": 78
  },
  {
    "start": 34.584,
    "pitch": 62,
    "velocity": 59
  },
  {
    "start": 34.643,
    "pitch": 43,
    "velocity": 48
  },
  {
    "start": 34.828,
    "pitch": 62,
    "velocity": 46
  },
  {
    "start": 35.026,
    "pitch": 62,
    "velocity": 71
  },
  {
    "start": 35.177,
    "pitch": 43,
    "velocity": 53
  },
  {
    "start": 35.536,
    "pitch": 60,
    "velocity": 45
  },
  {
    "start": 35.932,
    "pitch": 60,
    "velocity": 76
  },
  {
    "start": 36.606,
    "pitch": 62,
    "velocity": 36
  },
  {
    "start": 36.746,
    "pitch": 62,
    "velocity": 70
  },
  {
    "start": 37.094,
    "pitch": 62,
    "velocity": 59
  },
  {
    "start": 37.43,
    "pitch": 62,
    "velocity": 58
  },
  {
    "start": 38.407,
    "pitch": 62,
    "velocity": 70
  },
  {
    "start": 38.453,
    "pitch": 32,
    "velocity": 46
  },
  {
    "start": 38.744,
    "pitch": 62,
    "velocity": 51
  },
  {
    "start": 38.988,
    "pitch": 43,
    "velocity": 54
  },
  {
    "start": 38.988,
    "pitch": 62,
    "velocity": 64
  },
  {
    "start": 39.347,
    "pitch": 74,
    "velocity": 37
  },
  {
    "start": 39.347,
    "pitch": 62,
    "velocity": 40
  },
  {
    "start": 39.603,
    "pitch": 62,
    "velocity": 29
  },
  {
    "start": 39.848,
    "pitch": 64,
    "velocity": 63
  },
  {
    "start": 40.73,
    "pitch": 64,
    "velocity": 83
  },
  {
    "start": 40.881,
    "pitch": 64,
    "velocity": 64
  },
  {
    "start": 41.241,
    "pitch": 64,
    "velocity": 82
  },
  {
    "start": 41.38,
    "pitch": 64,
    "velocity": 76
  },
  {
    "start": 41.648,
    "pitch": 60,
    "velocity": 79
  },
  {
    "start": 41.846,
    "pitch": 60,
    "velocity": 75
  },
  {
    "start": 42.299,
    "pitch": 60,
    "velocity": 61
  },
  {
    "start": 42.554,
    "pitch": 59,
    "velocity": 70
  },
  {
    "start": 42.809,
    "pitch": 60,
    "velocity": 68
  },
  {
    "start": 42.984,
    "pitch": 60,
    "velocity": 51
  },
  {
    "start": 43.03,
    "pitch": 41,
    "velocity": 49
  },
  {
    "start": 43.204,
    "pitch": 29,
    "velocity": 49
  },
  {
    "start": 43.402,
    "pitch": 60,
    "velocity": 40
  },
  {
    "start": 43.751,
    "pitch": 62,
    "velocity": 80
  },
  {
    "start": 43.938,
    "pitch": 62,
    "velocity": 62
  },
  {
    "start": 44.019,
    "pitch": 29,
    "velocity": 38
  },
  {
    "start": 44.17,
    "pitch": 36,
    "velocity": 50
  },
  {
    "start": 44.459,
    "pitch": 62,
    "velocity": 71
  },
  {
    "start": 44.715,
    "pitch": 64,
    "velocity": 57
  },
  {
    "start": 44.947,
    "pitch": 76,
    "velocity": 35
  },
  {
    "start": 44.947,
    "pitch": 64,
    "velocity": 86
  },
  {
    "start": 45.411,
    "pitch": 60,
    "velocity": 72
  },
  {
    "start": 45.901,
    "pitch": 60,
    "velocity": 64
  },
  {
    "start": 46.132,
    "pitch": 60,
    "velocity": 87
  },
  {
    "start": 46.376,
    "pitch": 59,
    "velocity": 92
  },
  {
    "start": 46.621,
    "pitch": 60,
    "velocity": 97
  },
  {
    "start": 46.91,
    "pitch": 60,
    "velocity": 78
  },
  {
    "start": 47.328,
    "pitch": 67,
    "velocity": 82
  },
  {
    "start": 47.572,
    "pitch": 65,
    "velocity": 72
  },
  {
    "start": 47.678,
    "pitch": 29,
    "velocity": 88
  },
  {
    "start": 47.806,
    "pitch": 64,
    "velocity": 88
  },
  {
    "start": 48.154,
    "pitch": 41,
    "velocity": 45
  },
  {
    "start": 48.166,
    "pitch": 60,
    "velocity": 62
  },
  {
    "start": 48.364,
    "pitch": 60,
    "velocity": 92
  },
  {
    "start": 48.56,
    "pitch": 60,
    "velocity": 71
  },
  {
    "start": 48.77,
    "pitch": 64,
    "velocity": 87
  },
  {
    "start": 48.793,
    "pitch": 41,
    "velocity": 42
  },
  {
    "start": 49.014,
    "pitch": 60,
    "velocity": 77
  },
  {
    "start": 49.246,
    "pitch": 60,
    "velocity": 82
  },
  {
    "start": 49.49,
    "pitch": 60,
    "velocity": 72
  },
  {
    "start": 49.676,
    "pitch": 33,
    "velocity": 87
  },
  {
    "start": 49.7,
    "pitch": 64,
    "velocity": 77
  },
  {
    "start": 49.908,
    "pitch": 62,
    "velocity": 76
  },
  {
    "start": 50.21,
    "pitch": 60,
    "velocity": 78
  },
  {
    "start": 50.396,
    "pitch": 31,
    "velocity": 91
  },
  {
    "start": 50.431,
    "pitch": 62,
    "velocity": 62
  },
  {
    "start": 50.454,
    "pitch": 43,
    "velocity": 42
  },
  {
    "start": 50.907,
    "pitch": 62,
    "velocity": 52
  },
  {
    "start": 50.907,
    "pitch": 59,
    "velocity": 55
  },
  {
    "start": 51.128,
    "pitch": 67,
    "velocity": 54
  },
  {
    "start": 51.14,
    "pitch": 55,
    "velocity": 46
  },
  {
    "start": 51.325,
    "pitch": 65,
    "velocity": 75
  },
  {
    "start": 51.58,
    "pitch": 29,
    "velocity": 90
  },
  {
    "start": 51.756,
    "pitch": 64,
    "velocity": 79
  },
  {
    "start": 51.989,
    "pitch": 41,
    "velocity": 46
  },
  {
    "start": 52.0,
    "pitch": 60,
    "velocity": 71
  },
  {
    "start": 52.185,
    "pitch": 60,
    "velocity": 88
  },
  {
    "start": 52.348,
    "pitch": 60,
    "velocity": 71
  },
  {
    "start": 52.441,
    "pitch": 41,
    "velocity": 50
  },
  {
    "start": 52.603,
    "pitch": 64,
    "velocity": 63
  },
  {
    "start": 52.801,
    "pitch": 60,
    "velocity": 76
  },
  {
    "start": 53.056,
    "pitch": 60,
    "velocity": 70
  },
  {
    "start": 53.521,
    "pitch": 33,
    "velocity": 85
  },
  {
    "start": 53.544,
    "pitch": 71,
    "velocity": 54
  },
  {
    "start": 53.636,
    "pitch": 60,
    "velocity": 51
  },
  {
    "start": 53.998,
    "pitch": 69,
    "velocity": 68
  },
  {
    "start": 53.998,
    "pitch": 57,
    "velocity": 46
  },
  {
    "start": 54.23,
    "pitch": 81,
    "velocity": 37
  },
  {
    "start": 54.23,
    "pitch": 69,
    "velocity": 69
  },
  {
    "start": 54.242,
    "pitch": 31,
    "velocity": 92
  },
  {
    "start": 54.346,
    "pitch": 57,
    "velocity": 60
  },
  {
    "start": 54.462,
    "pitch": 79,
    "velocity": 34
  },
  {
    "start": 54.462,
    "pitch": 67,
    "velocity": 69
  },
  {
    "start": 54.52,
    "pitch": 43,
    "velocity": 45
  },
  {
    "start": 54.741,
    "pitch": 64,
    "velocity": 69
  },
  {
    "start": 54.95,
    "pitch": 65,
    "velocity": 60
  },
  {
    "start": 55.286,
    "pitch": 67,
    "velocity": 79
  },
  {
    "start": 55.438,
    "pitch": 67,
    "velocity": 68
  },
  {
    "start": 55.449,
    "pitch": 29,
    "velocity": 84
  },
  {
    "start": 55.706,
    "pitch": 65,
    "velocity": 63
  },
  {
    "start": 55.903,
    "pitch": 57,
    "velocity": 46
  },
  {
    "start": 55.903,
    "pitch": 64,
    "velocity": 55
  },
  {
    "start": 56.251,
    "pitch": 64,
    "velocity": 72
  },
  {
    "start": 56.426,
    "pitch": 62,
    "velocity": 69
  },
  {
    "start": 56.611,
    "pitch": 62,
    "velocity": 75
  },
  {
    "start": 56.832,
    "pitch": 60,
    "velocity": 60
  },
  {
    "start": 56.844,
    "pitch": 57,
    "velocity": 73
  },
  {
    "start": 57.227,
    "pitch": 67,
    "velocity": 74
  },
  {
    "start": 57.239,
    "pitch": 64,
    "velocity": 66
  },
  {
    "start": 57.412,
    "pitch": 33,
    "velocity": 63
  },
  {
    "start": 57.575,
    "pitch": 65,
    "velocity": 74
  },
  {
    "start": 57.598,
    "pitch": 62,
    "velocity": 65
  },
  {
    "start": 57.808,
    "pitch": 64,
    "velocity": 49
  },
  {
    "start": 58.029,
    "pitch": 64,
    "velocity": 59
  },
  {
    "start": 58.029,
    "pitch": 72,
    "velocity": 27
  },
  {
    "start": 58.088,
    "pitch": 31,
    "velocity": 57
  },
  {
    "start": 58.169,
    "pitch": 64,
    "velocity": 68
  },
  {
    "start": 58.18,
    "pitch": 72,
    "velocity": 74
  },
  {
    "start": 58.226,
    "pitch": 57,
    "velocity": 46
  },
  {
    "start": 58.424,
    "pitch": 62,
    "velocity": 61
  },
  {
    "start": 58.517,
    "pitch": 55,
    "velocity": 56
  },
  {
    "start": 58.76,
    "pitch": 60,
    "velocity": 84
  },
  {
    "start": 59.004,
    "pitch": 64,
    "velocity": 83
  },
  {
    "start": 59.236,
    "pitch": 69,
    "velocity": 48
  },
  {
    "start": 59.248,
    "pitch": 65,
    "velocity": 104
  },
  {
    "start": 59.387,
    "pitch": 65,
    "velocity": 99
  },
  {
    "start": 59.55,
    "pitch": 65,
    "velocity": 100
  },
  {
    "start": 59.702,
    "pitch": 65,
    "velocity": 84
  },
  {
    "start": 59.957,
    "pitch": 62,
    "velocity": 72
  },
  {
    "start": 60.131,
    "pitch": 76,
    "velocity": 54
  },
  {
    "start": 60.131,
    "pitch": 64,
    "velocity": 77
  },
  {
    "start": 60.909,
    "pitch": 62,
    "velocity": 84
  },
  {
    "start": 61.083,
    "pitch": 62,
    "velocity": 76
  },
  {
    "start": 61.374,
    "pitch": 64,
    "velocity": 70
  },
  {
    "start": 61.619,
    "pitch": 60,
    "velocity": 95
  },
  {
    "start": 61.84,
    "pitch": 60,
    "velocity": 51
  },
  {
    "start": 62.083,
    "pitch": 60,
    "velocity": 86
  },
  {
    "start": 63.302,
    "pitch": 67,
    "velocity": 56
  },
  {
    "start": 63.722,
    "pitch": 62,
    "velocity": 66
  },
  {
    "start": 64.081,
    "pitch": 60,
    "velocity": 90
  },
  {
    "start": 64.162,
    "pitch": 32,
    "velocity": 42
  },
  {
    "start": 64.232,
    "pitch": 60,
    "velocity": 68
  },
  {
    "start": 64.489,
    "pitch": 57,
    "velocity": 78
  },
  {
    "start": 65.046,
    "pitch": 30,
    "velocity": 40
  },
  {
    "start": 65.184,
    "pitch": 67,
    "velocity": 82
  },
  {
    "start": 65.661,
    "pitch": 62,
    "velocity": 79
  },
  {
    "start": 65.906,
    "pitch": 41,
    "velocity": 46
  },
  {
    "start": 65.906,
    "pitch": 60,
    "velocity": 63
  },
  {
    "start": 66.417,
    "pitch": 57,
    "velocity": 78
  },
  {
    "start": 66.857,
    "pitch": 30,
    "velocity": 40
  },
  {
    "start": 67.427,
    "pitch": 64,
    "velocity": 68
  },
  {
    "start": 67.427,
    "pitch": 76,
    "velocity": 40
  },
  {
    "start": 67.555,
    "pitch": 64,
    "velocity": 67
  },
  {
    "start": 67.8,
    "pitch": 48,
    "velocity": 37
  },
  {
    "start": 67.834,
    "pitch": 72,
    "velocity": 43
  },
  {
    "start": 67.834,
    "pitch": 60,
    "velocity": 74
  },
  {
    "start": 68.275,
    "pitch": 62,
    "velocity": 69
  },
  {
    "start": 68.507,
    "pitch": 64,
    "velocity": 49
  },
  {
    "start": 68.995,
    "pitch": 64,
    "velocity": 60
  },
  {
    "start": 69.262,
    "pitch": 60,
    "velocity": 65
  },
  {
    "start": 69.705,
    "pitch": 60,
    "velocity": 55
  },
  {
    "start": 69.856,
    "pitch": 29,
    "velocity": 66
  },
  {
    "start": 70.03,
    "pitch": 29,
    "velocity": 58
  },
  {
    "start": 70.761,
    "pitch": 64,
    "velocity": 66
  },
  {
    "start": 70.773,
    "pitch": 30,
    "velocity": 52
  },
  {
    "start": 70.912,
    "pitch": 67,
    "velocity": 74
  },
  {
    "start": 71.365,
    "pitch": 62,
    "velocity": 77
  },
  {
    "start": 71.61,
    "pitch": 72,
    "velocity": 31
  },
  {
    "start": 71.61,
    "pitch": 60,
    "velocity": 64
  },
  {
    "start": 71.866,
    "pitch": 60,
    "velocity": 66
  },
  {
    "start": 72.121,
    "pitch": 57,
    "velocity": 79
  },
  {
    "start": 72.319,
    "pitch": 60,
    "velocity": 47
  },
  {
    "start": 72.62,
    "pitch": 64,
    "velocity": 68
  },
  {
    "start": 72.806,
    "pitch": 67,
    "velocity": 77
  },
  {
    "start": 73.375,
    "pitch": 60,
    "velocity": 83
  },
  {
    "start": 73.504,
    "pitch": 60,
    "velocity": 66
  },
  {
    "start": 73.539,
    "pitch": 41,
    "velocity": 56
  },
  {
    "start": 73.655,
    "pitch": 60,
    "velocity": 68
  },
  {
    "start": 74.015,
    "pitch": 57,
    "velocity": 74
  },
  {
    "start": 74.525,
    "pitch": 30,
    "velocity": 45
  },
  {
    "start": 75.036,
    "pitch": 64,
    "velocity": 60
  },
  {
    "start": 75.454,
    "pitch": 60,
    "velocity": 70
  },
  {
    "start": 75.491,
    "pitch": 36,
    "velocity": 39
  },
  {
    "start": 75.653,
    "pitch": 60,
    "velocity": 61
  },
  {
    "start": 75.885,
    "pitch": 62,
    "velocity": 60
  },
  {
    "start": 75.897,
    "pitch": 74,
    "velocity": 34
  },
  {
    "start": 76.489,
    "pitch": 76,
    "velocity": 42
  },
  {
    "start": 76.605,
    "pitch": 64,
    "velocity": 58
  },
  {
    "start": 76.86,
    "pitch": 72,
    "velocity": 46
  },
  {
    "start": 76.872,
    "pitch": 60,
    "velocity": 71
  },
  {
    "start": 77.07,
    "pitch": 43,
    "velocity": 34
  },
  {
    "start": 77.093,
    "pitch": 60,
    "velocity": 37
  },
  {
    "start": 77.325,
    "pitch": 31,
    "velocity": 39
  },
  {
    "start": 77.336,
    "pitch": 60,
    "velocity": 59
  },
  {
    "start": 78.359,
    "pitch": 36,
    "velocity": 50
  },
  {
    "start": 78.754,
    "pitch": 30,
    "velocity": 49
  },
  {
    "start": 79.94,
    "pitch": 48,
    "velocity": 37
  },
  {
    "start": 81.205,
    "pitch": 41,
    "velocity": 40
  },
  {
    "start": 82.158,
    "pitch": 36,
    "velocity": 56
  },
  {
    "start": 84.122,
    "pitch": 64,
    "velocity": 56
  },
  {
    "start": 84.133,
    "pitch": 76,
    "velocity": 40
  },
  {
    "start": 84.494,
    "pitch": 60,
    "velocity": 50
  },
  {
    "start": 84.517,
    "pitch": 48,
    "velocity": 54
  },
  {
    "start": 84.946,
    "pitch": 48,
    "velocity": 53
  },
  {
    "start": 86.306,
    "pitch": 24,
    "velocity": 71
  },
  {
    "start": 87.56,
    "pitch": 55,
    "velocity": 61
  },
  {
    "start": 87.805,
    "pitch": 55,
    "velocity": 74
  },
  {
    "start": 88.467,
    "pitch": 29,
    "velocity": 74
  },
  {
    "start": 89.117,
    "pitch": 31,
    "velocity": 75
  },
  {
    "start": 89.467,
    "pitch": 55,
    "velocity": 43
  },
  {
    "start": 90.255,
    "pitch": 24,
    "velocity": 64
  },
  {
    "start": 92.324,
    "pitch": 29,
    "velocity": 75
  },
  {
    "start": 93.753,
    "pitch": 52,
    "velocity": 88
  },
  {
    "start": 93.81,
    "pitch": 24,
    "velocity": 74
  },
  {
    "start": 93.974,
    "pitch": 52,
    "velocity": 81
  },
  {
    "start": 94.484,
    "pitch": 52,
    "velocity": 51
  },
  {
    "start": 94.717,
    "pitch": 52,
    "velocity": 94
  },
  {
    "start": 94.96,
    "pitch": 52,
    "velocity": 84
  },
  {
    "start": 95.46,
    "pitch": 53,
    "velocity": 93
  },
  {
    "start": 95.647,
    "pitch": 53,
    "velocity": 86
  },
  {
    "start": 95.891,
    "pitch": 53,
    "velocity": 56
  },
  {
    "start": 96.018,
    "pitch": 29,
    "velocity": 72
  },
  {
    "start": 96.645,
    "pitch": 52,
    "velocity": 65
  },
  {
    "start": 96.819,
    "pitch": 31,
    "velocity": 82
  },
  {
    "start": 96.843,
    "pitch": 52,
    "velocity": 71
  },
  {
    "start": 97.39,
    "pitch": 52,
    "velocity": 68
  },
  {
    "start": 97.552,
    "pitch": 60,
    "velocity": 51
  },
  {
    "start": 97.679,
    "pitch": 24,
    "velocity": 64
  },
  {
    "start": 97.715,
    "pitch": 36,
    "velocity": 42
  },
  {
    "start": 97.819,
    "pitch": 52,
    "velocity": 53
  },
  {
    "start": 98.283,
    "pitch": 52,
    "velocity": 62
  },
  {
    "start": 99.015,
    "pitch": 53,
    "velocity": 64
  },
  {
    "start": 99.317,
    "pitch": 53,
    "velocity": 79
  },
  {
    "start": 101.152,
    "pitch": 62,
    "velocity": 62
  },
  {
    "start": 101.175,
    "pitch": 31,
    "velocity": 44
  },
  {
    "start": 101.303,
    "pitch": 36,
    "velocity": 52
  },
  {
    "start": 101.316,
    "pitch": 64,
    "velocity": 82
  },
  {
    "start": 101.548,
    "pitch": 36,
    "velocity": 55
  },
  {
    "start": 102.28,
    "pitch": 64,
    "velocity": 50
  },
  {
    "start": 102.338,
    "pitch": 36,
    "velocity": 45
  },
  {
    "start": 102.524,
    "pitch": 36,
    "velocity": 56
  },
  {
    "start": 102.57,
    "pitch": 41,
    "velocity": 49
  },
  {
    "start": 103.0,
    "pitch": 60,
    "velocity": 64
  },
  {
    "start": 103.185,
    "pitch": 62,
    "velocity": 72
  },
  {
    "start": 103.407,
    "pitch": 62,
    "velocity": 73
  },
  {
    "start": 103.767,
    "pitch": 60,
    "velocity": 67
  },
  {
    "start": 103.895,
    "pitch": 33,
    "velocity": 44
  },
  {
    "start": 103.999,
    "pitch": 62,
    "velocity": 82
  },
  {
    "start": 104.312,
    "pitch": 62,
    "velocity": 79
  },
  {
    "start": 104.707,
    "pitch": 60,
    "velocity": 76
  },
  {
    "start": 104.94,
    "pitch": 60,
    "velocity": 79
  },
  {
    "start": 104.951,
    "pitch": 38,
    "velocity": 51
  },
  {
    "start": 105.056,
    "pitch": 57,
    "velocity": 47
  },
  {
    "start": 105.183,
    "pitch": 60,
    "velocity": 72
  },
  {
    "start": 105.276,
    "pitch": 48,
    "velocity": 40
  },
  {
    "start": 105.428,
    "pitch": 60,
    "velocity": 59
  },
  {
    "start": 105.707,
    "pitch": 57,
    "velocity": 72
  },
  {
    "start": 105.707,
    "pitch": 38,
    "velocity": 45
  },
  {
    "start": 105.742,
    "pitch": 26,
    "velocity": 43
  },
  {
    "start": 105.754,
    "pitch": 45,
    "velocity": 49
  },
  {
    "start": 105.904,
    "pitch": 41,
    "velocity": 47
  },
  {
    "start": 106.369,
    "pitch": 41,
    "velocity": 56
  },
  {
    "start": 106.38,
    "pitch": 60,
    "velocity": 46
  },
  {
    "start": 106.612,
    "pitch": 60,
    "velocity": 55
  },
  {
    "start": 106.624,
    "pitch": 38,
    "velocity": 38
  },
  {
    "start": 106.868,
    "pitch": 38,
    "velocity": 39
  },
  {
    "start": 106.996,
    "pitch": 62,
    "velocity": 66
  },
  {
    "start": 107.194,
    "pitch": 31,
    "velocity": 50
  },
  {
    "start": 107.217,
    "pitch": 62,
    "velocity": 92
  },
  {
    "start": 107.403,
    "pitch": 62,
    "velocity": 76
  },
  {
    "start": 107.822,
    "pitch": 62,
    "velocity": 76
  },
  {
    "start": 107.868,
    "pitch": 55,
    "velocity": 48
  },
  {
    "start": 108.123,
    "pitch": 65,
    "velocity": 72
  },
  {
    "start": 108.251,
    "pitch": 31,
    "velocity": 43
  },
  {
    "start": 108.298,
    "pitch": 67,
    "velocity": 86
  },
  {
    "start": 108.761,
    "pitch": 38,
    "velocity": 35
  },
  {
    "start": 108.855,
    "pitch": 36,
    "velocity": 53
  },
  {
    "start": 108.912,
    "pitch": 64,
    "velocity": 83
  },
  {
    "start": 108.959,
    "pitch": 45,
    "velocity": 50
  },
  {
    "start": 109.122,
    "pitch": 45,
    "velocity": 50
  },
  {
    "start": 109.156,
    "pitch": 38,
    "velocity": 52
  },
  {
    "start": 109.344,
    "pitch": 36,
    "velocity": 46
  },
  {
    "start": 109.529,
    "pitch": 36,
    "velocity": 57
  },
  {
    "start": 110.005,
    "pitch": 64,
    "velocity": 44
  },
  {
    "start": 110.133,
    "pitch": 48,
    "velocity": 43
  },
  {
    "start": 110.424,
    "pitch": 60,
    "velocity": 72
  },
  {
    "start": 110.714,
    "pitch": 67,
    "velocity": 72
  },
  {
    "start": 110.865,
    "pitch": 64,
    "velocity": 77
  },
  {
    "start": 110.923,
    "pitch": 45,
    "velocity": 48
  },
  {
    "start": 111.016,
    "pitch": 64,
    "velocity": 66
  },
  {
    "start": 111.155,
    "pitch": 64,
    "velocity": 59
  },
  {
    "start": 111.167,
    "pitch": 33,
    "velocity": 47
  },
  {
    "start": 111.389,
    "pitch": 64,
    "velocity": 64
  },
  {
    "start": 111.493,
    "pitch": 45,
    "velocity": 44
  },
  {
    "start": 111.621,
    "pitch": 62,
    "velocity": 65
  },
  {
    "start": 111.853,
    "pitch": 62,
    "velocity": 77
  },
  {
    "start": 112.085,
    "pitch": 62,
    "velocity": 71
  },
  {
    "start": 112.561,
    "pitch": 79,
    "velocity": 64
  },
  {
    "start": 112.561,
    "pitch": 67,
    "velocity": 60
  },
  {
    "start": 112.573,
    "pitch": 38,
    "velocity": 35
  },
  {
    "start": 112.735,
    "pitch": 64,
    "velocity": 74
  },
  {
    "start": 112.817,
    "pitch": 45,
    "velocity": 51
  },
  {
    "start": 112.921,
    "pitch": 64,
    "velocity": 77
  },
  {
    "start": 113.515,
    "pitch": 38,
    "velocity": 37
  },
  {
    "start": 113.538,
    "pitch": 62,
    "velocity": 77
  },
  {
    "start": 113.991,
    "pitch": 29,
    "velocity": 48
  },
  {
    "start": 114.246,
    "pitch": 60,
    "velocity": 37
  },
  {
    "start": 114.478,
    "pitch": 67,
    "velocity": 57
  },
  {
    "start": 114.478,
    "pitch": 38,
    "velocity": 38
  },
  {
    "start": 114.664,
    "pitch": 64,
    "velocity": 69
  },
  {
    "start": 114.71,
    "pitch": 45,
    "velocity": 47
  },
  {
    "start": 114.803,
    "pitch": 38,
    "velocity": 32
  },
  {
    "start": 114.837,
    "pitch": 64,
    "velocity": 73
  },
  {
    "start": 115.209,
    "pitch": 67,
    "velocity": 67
  },
  {
    "start": 115.431,
    "pitch": 64,
    "velocity": 74
  },
  {
    "start": 115.664,
    "pitch": 64,
    "velocity": 60
  },
  {
    "start": 116.104,
    "pitch": 60,
    "velocity": 71
  },
  {
    "start": 116.58,
    "pitch": 64,
    "velocity": 73
  },
  {
    "start": 116.604,
    "pitch": 60,
    "velocity": 46
  },
  {
    "start": 116.743,
    "pitch": 55,
    "velocity": 45
  },
  {
    "start": 116.755,
    "pitch": 64,
    "velocity": 69
  },
  {
    "start": 116.824,
    "pitch": 36,
    "velocity": 45
  },
  {
    "start": 117.115,
    "pitch": 64,
    "velocity": 42
  },
  {
    "start": 117.184,
    "pitch": 62,
    "velocity": 68
  },
  {
    "start": 117.208,
    "pitch": 38,
    "velocity": 48
  },
  {
    "start": 117.325,
    "pitch": 79,
    "velocity": 49
  },
  {
    "start": 117.627,
    "pitch": 62,
    "velocity": 64
  },
  {
    "start": 117.801,
    "pitch": 36,
    "velocity": 54
  },
  {
    "start": 117.812,
    "pitch": 76,
    "velocity": 55
  },
  {
    "start": 117.812,
    "pitch": 64,
    "velocity": 74
  },
  {
    "start": 117.871,
    "pitch": 83,
    "velocity": 53
  },
  {
    "start": 118.033,
    "pitch": 83,
    "velocity": 45
  },
  {
    "start": 118.092,
    "pitch": 55,
    "velocity": 45
  },
  {
    "start": 118.254,
    "pitch": 52,
    "velocity": 40
  },
  {
    "start": 119.008,
    "pitch": 60,
    "velocity": 68
  },
  {
    "start": 119.02,
    "pitch": 76,
    "velocity": 48
  },
  {
    "start": 119.067,
    "pitch": 64,
    "velocity": 51
  },
  {
    "start": 119.219,
    "pitch": 64,
    "velocity": 62
  },
  {
    "start": 119.485,
    "pitch": 60,
    "velocity": 69
  },
  {
    "start": 119.741,
    "pitch": 62,
    "velocity": 66
  },
  {
    "start": 119.95,
    "pitch": 60,
    "velocity": 43
  },
  {
    "start": 120.507,
    "pitch": 65,
    "velocity": 64
  },
  {
    "start": 120.542,
    "pitch": 77,
    "velocity": 46
  },
  {
    "start": 121.182,
    "pitch": 65,
    "velocity": 58
  },
  {
    "start": 121.356,
    "pitch": 65,
    "velocity": 56
  },
  {
    "start": 121.716,
    "pitch": 37,
    "velocity": 44
  },
  {
    "start": 121.762,
    "pitch": 68,
    "velocity": 37
  },
  {
    "start": 121.762,
    "pitch": 80,
    "velocity": 59
  },
  {
    "start": 121.832,
    "pitch": 28,
    "velocity": 49
  },
  {
    "start": 121.867,
    "pitch": 35,
    "velocity": 40
  },
  {
    "start": 122.239,
    "pitch": 68,
    "velocity": 49
  },
  {
    "start": 122.261,
    "pitch": 35,
    "velocity": 51
  },
  {
    "start": 122.331,
    "pitch": 80,
    "velocity": 59
  },
  {
    "start": 122.435,
    "pitch": 32,
    "velocity": 54
  },
  {
    "start": 122.796,
    "pitch": 70,
    "velocity": 44
  },
  {
    "start": 122.924,
    "pitch": 80,
    "velocity": 46
  },
  {
    "start": 123.074,
    "pitch": 30,
    "velocity": 45
  },
  {
    "start": 123.18,
    "pitch": 73,
    "velocity": 43
  },
  {
    "start": 123.192,
    "pitch": 28,
    "velocity": 52
  },
  {
    "start": 123.377,
    "pitch": 68,
    "velocity": 36
  },
  {
    "start": 123.633,
    "pitch": 80,
    "velocity": 57
  },
  {
    "start": 123.981,
    "pitch": 65,
    "velocity": 38
  },
  {
    "start": 124.132,
    "pitch": 77,
    "velocity": 36
  },
  {
    "start": 124.26,
    "pitch": 68,
    "velocity": 56
  },
  {
    "start": 124.585,
    "pitch": 77,
    "velocity": 48
  },
  {
    "start": 124.759,
    "pitch": 61,
    "velocity": 47
  },
  {
    "start": 124.945,
    "pitch": 61,
    "velocity": 72
  },
  {
    "start": 124.956,
    "pitch": 49,
    "velocity": 44
  },
  {
    "start": 125.107,
    "pitch": 65,
    "velocity": 51
  },
  {
    "start": 125.155,
    "pitch": 61,
    "velocity": 73
  },
  {
    "start": 125.469,
    "pitch": 58,
    "velocity": 61
  },
  {
    "start": 125.48,
    "pitch": 30,
    "velocity": 45
  },
  {
    "start": 125.584,
    "pitch": 77,
    "velocity": 56
  },
  {
    "start": 126.026,
    "pitch": 32,
    "velocity": 58
  },
  {
    "start": 126.096,
    "pitch": 78,
    "velocity": 51
  },
  {
    "start": 126.536,
    "pitch": 77,
    "velocity": 56
  },
  {
    "start": 126.861,
    "pitch": 61,
    "velocity": 57
  },
  {
    "start": 127.094,
    "pitch": 61,
    "velocity": 62
  },
  {
    "start": 127.374,
    "pitch": 58,
    "velocity": 58
  },
  {
    "start": 128.384,
    "pitch": 65,
    "velocity": 53
  },
  {
    "start": 128.767,
    "pitch": 61,
    "velocity": 57
  },
  {
    "start": 128.791,
    "pitch": 73,
    "velocity": 41
  },
  {
    "start": 128.906,
    "pitch": 61,
    "velocity": 51
  },
  {
    "start": 129.221,
    "pitch": 63,
    "velocity": 50
  },
  {
    "start": 129.859,
    "pitch": 65,
    "velocity": 65
  },
  {
    "start": 129.872,
    "pitch": 32,
    "velocity": 55
  },
  {
    "start": 129.872,
    "pitch": 73,
    "velocity": 52
  },
  {
    "start": 130.312,
    "pitch": 32,
    "velocity": 51
  },
  {
    "start": 130.87,
    "pitch": 30,
    "velocity": 49
  },
  {
    "start": 131.114,
    "pitch": 66,
    "velocity": 27
  },
  {
    "start": 131.312,
    "pitch": 32,
    "velocity": 41
  },
  {
    "start": 131.371,
    "pitch": 29,
    "velocity": 60
  },
  {
    "start": 131.464,
    "pitch": 77,
    "velocity": 36
  },
  {
    "start": 131.464,
    "pitch": 65,
    "velocity": 42
  },
  {
    "start": 131.556,
    "pitch": 30,
    "velocity": 39
  },
  {
    "start": 131.858,
    "pitch": 61,
    "velocity": 56
  },
  {
    "start": 131.87,
    "pitch": 68,
    "velocity": 63
  },
  {
    "start": 132.218,
    "pitch": 65,
    "velocity": 48
  },
  {
    "start": 132.218,
    "pitch": 77,
    "velocity": 43
  },
  {
    "start": 132.253,
    "pitch": 61,
    "velocity": 49
  },
  {
    "start": 132.567,
    "pitch": 61,
    "velocity": 48
  },
  {
    "start": 132.624,
    "pitch": 37,
    "velocity": 51
  },
  {
    "start": 132.682,
    "pitch": 30,
    "velocity": 48
  },
  {
    "start": 132.705,
    "pitch": 61,
    "velocity": 59
  },
  {
    "start": 132.845,
    "pitch": 61,
    "velocity": 66
  },
  {
    "start": 132.845,
    "pitch": 73,
    "velocity": 45
  },
  {
    "start": 133.043,
    "pitch": 58,
    "velocity": 43
  },
  {
    "start": 133.566,
    "pitch": 65,
    "velocity": 47
  },
  {
    "start": 133.694,
    "pitch": 32,
    "velocity": 54
  },
  {
    "start": 133.786,
    "pitch": 68,
    "velocity": 63
  },
  {
    "start": 134.147,
    "pitch": 32,
    "velocity": 52
  },
  {
    "start": 134.472,
    "pitch": 61,
    "velocity": 46
  },
  {
    "start": 134.542,
    "pitch": 30,
    "velocity": 41
  },
  {
    "start": 134.599,
    "pitch": 42,
    "velocity": 51
  },
  {
    "start": 135.146,
    "pitch": 32,
    "velocity": 42
  },
  {
    "start": 135.193,
    "pitch": 29,
    "velocity": 55
  },
  {
    "start": 135.495,
    "pitch": 37,
    "velocity": 56
  },
  {
    "start": 135.552,
    "pitch": 73,
    "velocity": 41
  },
  {
    "start": 135.959,
    "pitch": 29,
    "velocity": 42
  },
  {
    "start": 136.028,
    "pitch": 65,
    "velocity": 56
  },
  {
    "start": 136.4,
    "pitch": 49,
    "velocity": 57
  },
  {
    "start": 136.411,
    "pitch": 61,
    "velocity": 60
  },
  {
    "start": 136.434,
    "pitch": 37,
    "velocity": 51
  },
  {
    "start": 137.434,
    "pitch": 30,
    "velocity": 39
  },
  {
    "start": 137.551,
    "pitch": 65,
    "velocity": 68
  },
  {
    "start": 137.829,
    "pitch": 61,
    "velocity": 49
  },
  {
    "start": 138.294,
    "pitch": 61,
    "velocity": 70
  },
  {
    "start": 139.351,
    "pitch": 32,
    "velocity": 47
  },
  {
    "start": 140.165,
    "pitch": 73,
    "velocity": 54
  },
  {
    "start": 140.373,
    "pitch": 73,
    "velocity": 60
  },
  {
    "start": 142.07,
    "pitch": 73,
    "velocity": 53
  },
  {
    "start": 142.104,
    "pitch": 30,
    "velocity": 51
  },
  {
    "start": 142.278,
    "pitch": 73,
    "velocity": 68
  },
  {
    "start": 142.534,
    "pitch": 30,
    "velocity": 51
  },
  {
    "start": 143.139,
    "pitch": 32,
    "velocity": 44
  },
  {
    "start": 143.65,
    "pitch": 65,
    "velocity": 45
  },
  {
    "start": 143.986,
    "pitch": 73,
    "velocity": 32
  },
  {
    "start": 143.986,
    "pitch": 49,
    "velocity": 53
  },
  {
    "start": 143.986,
    "pitch": 61,
    "velocity": 62
  },
  {
    "start": 144.718,
    "pitch": 49,
    "velocity": 41
  },
  {
    "start": 145.068,
    "pitch": 65,
    "velocity": 55
  },
  {
    "start": 145.427,
    "pitch": 61,
    "velocity": 62
  },
  {
    "start": 145.683,
    "pitch": 61,
    "velocity": 74
  },
  {
    "start": 146.241,
    "pitch": 31,
    "velocity": 45
  },
  {
    "start": 146.252,
    "pitch": 29,
    "velocity": 46
  },
  {
    "start": 146.74,
    "pitch": 30,
    "velocity": 52
  },
  {
    "start": 147.321,
    "pitch": 27,
    "velocity": 44
  },
  {
    "start": 147.611,
    "pitch": 26,
    "velocity": 64
  },
  {
    "start": 149.25,
    "pitch": 77,
    "velocity": 70
  }
]