[
  {
    "start": 0.14,
    "pitch": 69,
    "velocity": 66
  },
  {
    "start": 0.14,
    "pitch": 52,
    "velocity": 48
  },
  {
    "start": 0.14,
    "pitch": 48,
    "velocity": 51
  },
  {
    "start": 0.151,
    "pitch": 60,
    "velocity": 38
  },
  {
    "start": 0.291,
    "pitch": 60,
    "velocity": 58
  },
  {
    "start": 0.291,
    "pitch": 69,
    "velocity": 58
  },
  {
    "start": 0.302,
    "pitch": 55,
    "velocity": 35
  },
  {
    "start": 0.465,
    "pitch": 64,
    "velocity": 33
  },
  {
    "start": 0.465,
    "pitch": 71,
    "velocity": 62
  },
  {
    "start": 0.465,
    "pitch": 52,
    "velocity": 74
  },
  {
    "start": 0.476,
    "pitch": 55,
    "velocity": 39
  },
  {
    "start": 0.499,
    "pitch": 43,
    "velocity": 41
  },
  {
    "start": 0.616,
    "pitch": 64,
    "velocity": 44
  },
  {
    "start": 0.708,
    "pitch": 55,
    "velocity": 38
  },
  {
    "start": 0.79,
    "pitch": 60,
    "velocity": 40
  },
  {
    "start": 0.871,
    "pitch": 55,
    "velocity": 57
  },
  {
    "start": 0.952,
    "pitch": 43,
    "velocity": 40
  },
  {
    "start": 0.952,
    "pitch": 52,
    "velocity": 69
  },
  {
    "start": 1.266,
    "pitch": 55,
    "velocity": 50
  },
  {
    "start": 1.266,
    "pitch": 64,
    "velocity": 40
  },
  {
    "start": 1.44,
    "pitch": 64,
    "velocity": 36
  },
  {
    "start": 1.451,
    "pitch": 55,
    "velocity": 37
  },
  {
    "start": 1.591,
    "pitch": 55,
    "velocity": 43
  },
  {
    "start": 1.602,
    "pitch": 60,
    "velocity": 34
  },
  {
    "start": 1.753,
    "pitch": 60,
    "velocity": 45
  },
  {
    "start": 1.765,
    "pitch": 67,
    "velocity": 40
  },
  {
    "start": 1.765,
    "pitch": 55,
    "velocity": 51
  },
  {
    "start": 2.009,
    "pitch": 55,
    "velocity": 59
  },
  {
    "start": 2.079,
    "pitch": 50,
    "velocity": 57
  },
  {
    "start": 2.091,
    "pitch": 47,
    "velocity": 30
  },
  {
    "start": 2.091,
    "pitch": 69,
    "velocity": 51
  },
  {
    "start": 2.103,
    "pitch": 43,
    "velocity": 58
  },
  {
    "start": 2.184,
    "pitch": 55,
    "velocity": 55
  },
  {
    "start": 2.381,
    "pitch": 47,
    "velocity": 62
  },
  {
    "start": 2.417,
    "pitch": 71,
    "velocity": 58
  },
  {
    "start": 2.417,
    "pitch": 55,
    "velocity": 61
  },
  {
    "start": 2.417,
    "pitch": 59,
    "velocity": 59
  },
  {
    "start": 2.521,
    "pitch": 62,
    "velocity": 38
  },
  {
    "start": 2.66,
    "pitch": 55,
    "velocity": 57
  },
  {
    "start": 2.718,
    "pitch": 62,
    "velocity": 50
  },
  {
    "start": 2.729,
    "pitch": 71,
    "velocity": 45
  },
  {
    "start": 2.904,
    "pitch": 55,
    "velocity": 40
  },
  {
    "start": 2.904,
    "pitch": 62,
    "velocity": 54
  },
  {
    "start": 2.916,
    "pitch": 59,
    "velocity": 43
  },
  {
    "start": 3.043,
    "pitch": 55,
    "velocity": 62
  },
  {
    "start": 3.148,
    "pitch": 62,
    "velocity": 43
  },
  {
    "start": 3.194,
    "pitch": 55,
    "velocity": 57
  },
  {
    "start": 3.218,
    "pitch": 71,
    "velocity": 46
  },
  {
    "start": 3.392,
    "pitch": 62,
    "velocity": 43
  },
  {
    "start": 3.403,
    "pitch": 55,
    "velocity": 57
  },
  {
    "start": 3.566,
    "pitch": 62,
    "velocity": 40
  },
  {
    "start": 3.705,
    "pitch": 55,
    "velocity": 63
  },
  {
    "start": 3.705,
    "pitch": 67,
    "velocity": 40
  },
  {
    "start": 3.786,
    "pitch": 62,
    "velocity": 48
  },
  {
    "start": 3.798,
    "pitch": 59,
    "velocity": 34
  },
  {
    "start": 3.879,
    "pitch": 55,
    "velocity": 73
  },
  {
    "start": 4.02,
    "pitch": 50,
    "velocity": 53
  },
  {
    "start": 4.031,
    "pitch": 62,
    "velocity": 60
  },
  {
    "start": 4.031,
    "pitch": 69,
    "velocity": 46
  },
  {
    "start": 4.031,
    "pitch": 45,
    "velocity": 47
  },
  {
    "start": 4.043,
    "pitch": 57,
    "velocity": 47
  },
  {
    "start": 4.182,
    "pitch": 54,
    "velocity": 45
  },
  {
    "start": 4.194,
    "pitch": 62,
    "velocity": 55
  },
  {
    "start": 4.356,
    "pitch": 62,
    "velocity": 53
  },
  {
    "start": 4.368,
    "pitch": 71,
    "velocity": 75
  },
  {
    "start": 4.542,
    "pitch": 66,
    "velocity": 45
  },
  {
    "start": 4.681,
    "pitch": 71,
    "velocity": 50
  },
  {
    "start": 4.693,
    "pitch": 66,
    "velocity": 57
  },
  {
    "start": 4.751,
    "pitch": 57,
    "velocity": 41
  },
  {
    "start": 4.855,
    "pitch": 62,
    "velocity": 46
  },
  {
    "start": 4.936,
    "pitch": 57,
    "velocity": 40
  },
  {
    "start": 5.006,
    "pitch": 66,
    "velocity": 57
  },
  {
    "start": 5.018,
    "pitch": 62,
    "velocity": 62
  },
  {
    "start": 5.018,
    "pitch": 50,
    "velocity": 49
  },
  {
    "start": 5.157,
    "pitch": 66,
    "velocity": 39
  },
  {
    "start": 5.169,
    "pitch": 71,
    "velocity": 55
  },
  {
    "start": 5.193,
    "pitch": 45,
    "velocity": 44
  },
  {
    "start": 5.285,
    "pitch": 62,
    "velocity": 56
  },
  {
    "start": 5.424,
    "pitch": 62,
    "velocity": 46
  },
  {
    "start": 5.656,
    "pitch": 67,
    "velocity": 41
  },
  {
    "start": 5.843,
    "pitch": 57,
    "velocity": 45
  },
  {
    "start": 5.877,
    "pitch": 62,
    "velocity": 45
  },
  {
    "start": 5.983,
    "pitch": 52,
    "velocity": 53
  },
  {
    "start": 5.995,
    "pitch": 69,
    "velocity": 47
  },
  {
    "start": 5.995,
    "pitch": 47,
    "velocity": 55
  },
  {
    "start": 5.995,
    "pitch": 55,
    "velocity": 51
  },
  {
    "start": 6.134,
    "pitch": 59,
    "velocity": 42
  },
  {
    "start": 6.308,
    "pitch": 59,
    "velocity": 46
  },
  {
    "start": 6.308,
    "pitch": 52,
    "velocity": 79
  },
  {
    "start": 6.32,
    "pitch": 71,
    "velocity": 54
  },
  {
    "start": 6.471,
    "pitch": 59,
    "velocity": 57
  },
  {
    "start": 6.471,
    "pitch": 64,
    "velocity": 53
  },
  {
    "start": 6.715,
    "pitch": 59,
    "velocity": 53
  },
  {
    "start": 6.784,
    "pitch": 67,
    "velocity": 49
  },
  {
    "start": 6.935,
    "pitch": 67,
    "velocity": 59
  },
  {
    "start": 6.958,
    "pitch": 64,
    "velocity": 51
  },
  {
    "start": 7.109,
    "pitch": 67,
    "velocity": 49
  },
  {
    "start": 7.132,
    "pitch": 64,
    "velocity": 39
  },
  {
    "start": 7.295,
    "pitch": 64,
    "velocity": 41
  },
  {
    "start": 7.388,
    "pitch": 59,
    "velocity": 42
  },
  {
    "start": 7.574,
    "pitch": 47,
    "velocity": 44
  },
  {
    "start": 7.597,
    "pitch": 67,
    "velocity": 61
  },
  {
    "start": 7.62,
    "pitch": 55,
    "velocity": 55
  },
  {
    "start": 7.69,
    "pitch": 59,
    "velocity": 35
  },
  {
    "start": 7.782,
    "pitch": 67,
    "velocity": 69
  },
  {
    "start": 7.945,
    "pitch": 69,
    "velocity": 56
  },
  {
    "start": 7.945,
    "pitch": 48,
    "velocity": 55
  },
  {
    "start": 7.947,
    "pitch": 60,
    "velocity": 37
  },
  {
    "start": 7.947,
    "pitch": 64,
    "velocity": 46
  },
  {
    "start": 8.085,
    "pitch": 69,
    "velocity": 56
  },
  {
    "start": 8.272,
    "pitch": 71,
    "velocity": 54
  },
  {
    "start": 8.272,
    "pitch": 64,
    "velocity": 48
  },
  {
    "start": 8.41,
    "pitch": 55,
    "velocity": 47
  },
  {
    "start": 8.561,
    "pitch": 64,
    "velocity": 50
  },
  {
    "start": 8.597,
    "pitch": 60,
    "velocity": 41
  },
  {
    "start": 8.748,
    "pitch": 55,
    "velocity": 49
  },
  {
    "start": 8.829,
    "pitch": 64,
    "velocity": 40
  },
  {
    "start": 8.91,
    "pitch": 60,
    "velocity": 56
  },
  {
    "start": 8.922,
    "pitch": 55,
    "velocity": 66
  },
  {
    "start": 9.06,
    "pitch": 43,
    "velocity": 49
  },
  {
    "start": 9.084,
    "pitch": 64,
    "velocity": 43
  },
  {
    "start": 9.084,
    "pitch": 55,
    "velocity": 50
  },
  {
    "start": 9.143,
    "pitch": 60,
    "velocity": 58
  },
  {
    "start": 9.305,
    "pitch": 60,
    "velocity": 43
  },
  {
    "start": 9.305,
    "pitch": 52,
    "velocity": 68
  },
  {
    "start": 9.421,
    "pitch": 64,
    "velocity": 44
  },
  {
    "start": 9.479,
    "pitch": 60,
    "velocity": 56
  },
  {
    "start": 9.572,
    "pitch": 55,
    "velocity": 54
  },
  {
    "start": 9.618,
    "pitch": 64,
    "velocity": 57
  },
  {
    "start": 9.653,
    "pitch": 60,
    "velocity": 44
  },
  {
    "start": 9.723,
    "pitch": 55,
    "velocity": 64
  },
  {
    "start": 9.897,
    "pitch": 47,
    "velocity": 30
  },
  {
    "start": 9.908,
    "pitch": 67,
    "velocity": 66
  },
  {
    "start": 9.908,
    "pitch": 55,
    "velocity": 62
  },
  {
    "start": 9.968,
    "pitch": 59,
    "velocity": 54
  },
  {
    "start": 9.968,
    "pitch": 50,
    "velocity": 52
  },
  {
    "start": 10.049,
    "pitch": 67,
    "velocity": 60
  },
  {
    "start": 10.223,
    "pitch": 67,
    "velocity": 60
  },
  {
    "start": 10.374,
    "pitch": 67,
    "velocity": 63
  },
  {
    "start": 10.397,
    "pitch": 47,
    "velocity": 39
  },
  {
    "start": 10.491,
    "pitch": 59,
    "velocity": 43
  },
  {
    "start": 10.559,
    "pitch": 67,
    "velocity": 55
  },
  {
    "start": 10.618,
    "pitch": 62,
    "velocity": 42
  },
  {
    "start": 10.699,
    "pitch": 67,
    "velocity": 70
  },
  {
    "start": 10.861,
    "pitch": 67,
    "velocity": 79
  },
  {
    "start": 10.861,
    "pitch": 62,
    "velocity": 48
  },
  {
    "start": 10.897,
    "pitch": 47,
    "velocity": 56
  },
  {
    "start": 10.92,
    "pitch": 59,
    "velocity": 46
  },
  {
    "start": 11.001,
    "pitch": 67,
    "velocity": 57
  },
  {
    "start": 11.21,
    "pitch": 62,
    "velocity": 38
  },
  {
    "start": 11.315,
    "pitch": 59,
    "velocity": 47
  },
  {
    "start": 11.349,
    "pitch": 67,
    "velocity": 66
  },
  {
    "start": 11.466,
    "pitch": 59,
    "velocity": 50
  },
  {
    "start": 11.524,
    "pitch": 67,
    "velocity": 55
  },
  {
    "start": 11.628,
    "pitch": 62,
    "velocity": 52
  },
  {
    "start": 11.674,
    "pitch": 67,
    "velocity": 74
  },
  {
    "start": 11.674,
    "pitch": 55,
    "velocity": 67
  },
  {
    "start": 11.849,
    "pitch": 54,
    "velocity": 36
  },
  {
    "start": 11.849,
    "pitch": 50,
    "velocity": 51
  },
  {
    "start": 11.849,
    "pitch": 62,
    "velocity": 52
  },
  {
    "start": 12.105,
    "pitch": 57,
    "velocity": 44
  },
  {
    "start": 12.245,
    "pitch": 66,
    "velocity": 45
  },
  {
    "start": 12.303,
    "pitch": 54,
    "velocity": 49
  },
  {
    "start": 12.326,
    "pitch": 62,
    "velocity": 51
  },
  {
    "start": 12.338,
    "pitch": 69,
    "velocity": 38
  },
  {
    "start": 12.453,
    "pitch": 50,
    "velocity": 42
  },
  {
    "start": 12.489,
    "pitch": 62,
    "velocity": 59
  },
  {
    "start": 12.57,
    "pitch": 57,
    "velocity": 46
  },
  {
    "start": 12.755,
    "pitch": 62,
    "velocity": 52
  },
  {
    "start": 12.848,
    "pitch": 57,
    "velocity": 50
  },
  {
    "start": 12.965,
    "pitch": 62,
    "velocity": 47
  },
  {
    "start": 13.371,
    "pitch": 62,
    "velocity": 43
  },
  {
    "start": 13.556,
    "pitch": 38,
    "velocity": 43
  },
  {
    "start": 14.522,
    "pitch": 71,
    "velocity": 44
  },
  {
    "start": 15.904,
    "pitch": 36,
    "velocity": 55
  },
  {
    "start": 16.416,
    "pitch": 36,
    "velocity": 53
  },
  {
    "start": 16.566,
    "pitch": 36,
    "velocity": 66
  },
  {
    "start": 16.752,
    "pitch": 36,
    "velocity": 49
  },
  {
    "start": 16.775,
    "pitch": 31,
    "velocity": 47
  },
  {
    "start": 16.798,
    "pitch": 59,
    "velocity": 73
  },
  {
    "start": 16.915,
    "pitch": 36,
    "velocity": 70
  },
  {
    "start": 17.054,
    "pitch": 36,
    "velocity": 62
  },
  {
    "start": 17.204,
    "pitch": 36,
    "velocity": 41
  },
  {
    "start": 17.391,
    "pitch": 36,
    "velocity": 71
  },
  {
    "start": 17.542,
    "pitch": 36,
    "velocity": 64
  },
  {
    "start": 17.542,
    "pitch": 71,
    "velocity": 54
  },
  {
    "start": 17.553,
    "pitch": 59,
    "velocity": 76
  },
  {
    "start": 17.704,
    "pitch": 59,
    "velocity": 72
  },
  {
    "start": 17.82,
    "pitch": 31,
    "velocity": 63
  },
  {
    "start": 17.843,
    "pitch": 43,
    "velocity": 60
  },
  {
    "start": 18.332,
    "pitch": 43,
    "velocity": 52
  },
  {
    "start": 18.367,
    "pitch": 31,
    "velocity": 67
  },
  {
    "start": 18.472,
    "pitch": 62,
    "velocity": 64
  },
  {
    "start": 18.82,
    "pitch": 31,
    "velocity": 60
  },
  {
    "start": 18.831,
    "pitch": 43,
    "velocity": 47
  },
  {
    "start": 19.319,
    "pitch": 43,
    "velocity": 61
  },
  {
    "start": 19.33,
    "pitch": 31,
    "velocity": 65
  },
  {
    "start": 19.4,
    "pitch": 55,
    "velocity": 69
  },
  {
    "start": 19.655,
    "pitch": 57,
    "velocity": 62
  },
  {
    "start": 20.423,
    "pitch": 62,
    "velocity": 73
  },
  {
    "start": 21.271,
    "pitch": 54,
    "velocity": 36
  },
  {
    "start": 21.468,
    "pitch": 54,
    "velocity": 44
  },
  {
    "start": 21.689,
    "pitch": 54,
    "velocity": 72
  },
  {
    "start": 22.271,
    "pitch": 28,
    "velocity": 39
  },
  {
    "start": 22.747,
    "pitch": 47,
    "velocity": 48
  },
  {
    "start": 23.246,
    "pitch": 28,
    "velocity": 42
  },
  {
    "start": 23.722,
    "pitch": 48,
    "velocity": 45
  },
  {
    "start": 23.733,
    "pitch": 36,
    "velocity": 57
  },
  {
    "start": 23.862,
    "pitch": 36,
    "velocity": 72
  },
  {
    "start": 24.014,
    "pitch": 36,
    "velocity": 41
  },
  {
    "start": 24.21,
    "pitch": 57,
    "velocity": 84
  },
  {
    "start": 24.21,
    "pitch": 36,
    "velocity": 63
  },
  {
    "start": 24.361,
    "pitch": 36,
    "velocity": 65
  },
  {
    "start": 24.571,
    "pitch": 59,
    "velocity": 74
  },
  {
    "start": 24.675,
    "pitch": 36,
    "velocity": 54
  },
  {
    "start": 24.838,
    "pitch": 36,
    "velocity": 66
  },
  {
    "start": 24.977,
    "pitch": 36,
    "velocity": 45
  },
  {
    "start": 25.023,
    "pitch": 55,
    "velocity": 70
  },
  {
    "start": 25.174,
    "pitch": 57,
    "velocity": 68
  },
  {
    "start": 25.174,
    "pitch": 36,
    "velocity": 63
  },
  {
    "start": 25.325,
    "pitch": 36,
    "velocity": 61
  },
  {
    "start": 25.348,
    "pitch": 59,
    "velocity": 74
  },
  {
    "start": 25.51,
    "pitch": 59,
    "velocity": 76
  },
  {
    "start": 25.639,
    "pitch": 43,
    "velocity": 53
  },
  {
    "start": 25.639,
    "pitch": 31,
    "velocity": 63
  },
  {
    "start": 26.14,
    "pitch": 43,
    "velocity": 56
  },
  {
    "start": 26.174,
    "pitch": 31,
    "velocity": 66
  },
  {
    "start": 26.302,
    "pitch": 62,
    "velocity": 66
  },
  {
    "start": 26.639,
    "pitch": 43,
    "velocity": 49
  },
  {
    "start": 26.639,
    "pitch": 31,
    "velocity": 66
  },
  {
    "start": 27.126,
    "pitch": 43,
    "velocity": 62
  },
  {
    "start": 27.138,
    "pitch": 31,
    "velocity": 66
  },
  {
    "start": 27.254,
    "pitch": 55,
    "velocity": 63
  },
  {
    "start": 27.451,
    "pitch": 57,
    "velocity": 69
  },
  {
    "start": 28.102,
    "pitch": 38,
    "velocity": 45
  },
  {
    "start": 28.44,
    "pitch": 66,
    "velocity": 88
  },
  {
    "start": 28.648,
    "pitch": 38,
    "velocity": 48
  },
  {
    "start": 28.787,
    "pitch": 66,
    "velocity": 51
  },
  {
    "start": 29.078,
    "pitch": 38,
    "velocity": 43
  },
  {
    "start": 29.542,
    "pitch": 64,
    "velocity": 67
  },
  {
    "start": 29.751,
    "pitch": 64,
    "velocity": 61
  },
  {
    "start": 29.926,
    "pitch": 66,
    "velocity": 60
  },
  {
    "start": 30.02,
    "pitch": 31,
    "velocity": 58
  },
  {
    "start": 30.182,
    "pitch": 31,
    "velocity": 51
  },
  {
    "start": 30.704,
    "pitch": 64,
    "velocity": 65
  },
  {
    "start": 30.902,
    "pitch": 62,
    "velocity": 58
  },
  {
    "start": 31.216,
    "pitch": 69,
    "velocity": 83
  },
  {
    "start": 31.529,
    "pitch": 36,
    "velocity": 47
  },
  {
    "start": 31.692,
    "pitch": 36,
    "velocity": 62
  },
  {
    "start": 31.703,
    "pitch": 69,
    "velocity": 81
  },
  {
    "start": 31.982,
    "pitch": 36,
    "velocity": 48
  },
  {
    "start": 32.18,
    "pitch": 81,
    "velocity": 49
  },
  {
    "start": 32.215,
    "pitch": 36,
    "velocity": 44
  },
  {
    "start": 32.227,
    "pitch": 69,
    "velocity": 69
  },
  {
    "start": 32.494,
    "pitch": 48,
    "velocity": 38
  },
  {
    "start": 32.505,
    "pitch": 36,
    "velocity": 58
  },
  {
    "start": 32.668,
    "pitch": 36,
    "velocity": 57
  },
  {
    "start": 32.679,
    "pitch": 62,
    "velocity": 69
  },
  {
    "start": 32.993,
    "pitch": 36,
    "velocity": 46
  },
  {
    "start": 33.155,
    "pitch": 36,
    "velocity": 58
  },
  {
    "start": 33.167,
    "pitch": 69,
    "velocity": 79
  },
  {
    "start": 33.41,
    "pitch": 31,
    "velocity": 60
  },
  {
    "start": 33.469,
    "pitch": 43,
    "velocity": 41
  },
  {
    "start": 33.631,
    "pitch": 69,
    "velocity": 71
  },
  {
    "start": 33.946,
    "pitch": 43,
    "velocity": 54
  },
  {
    "start": 33.97,
    "pitch": 31,
    "velocity": 64
  },
  {
    "start": 34.108,
    "pitch": 81,
    "velocity": 36
  },
  {
    "start": 34.108,
    "pitch": 69,
    "velocity": 68
  },
  {
    "start": 34.422,
    "pitch": 43,
    "velocity": 51
  },
  {
    "start": 34.446,
    "pitch": 31,
    "velocity": 63
  },
  {
    "start": 34.817,
    "pitch": 67,
    "velocity": 67
  },
  {
    "start": 34.875,
    "pitch": 31,
    "velocity": 72
  },
  {
    "start": 34.945,
    "pitch": 43,
    "velocity": 61
  },
  {
    "start": 35.107,
    "pitch": 31,
    "velocity": 56
  },
  {
    "start": 35.409,
    "pitch": 69,
    "velocity": 45
  },
  {
    "start": 35.629,
    "pitch": 69,
    "velocity": 73
  },
  {
    "start": 35.746,
    "pitch": 50,
    "velocity": 43
  },
  {
    "start": 35.921,
    "pitch": 38,
    "velocity": 57
  },
  {
    "start": 36.385,
    "pitch": 69,
    "velocity": 81
  },
  {
    "start": 36.455,
    "pitch": 38,
    "velocity": 44
  },
  {
    "start": 36.559,
    "pitch": 69,
    "velocity": 72
  },
  {
    "start": 36.897,
    "pitch": 38,
    "velocity": 57
  },
  {
    "start": 36.908,
    "pitch": 69,
    "velocity": 68
  },
  {
    "start": 37.256,
    "pitch": 81,
    "velocity": 44
  },
  {
    "start": 37.256,
    "pitch": 69,
    "velocity": 77
  },
  {
    "start": 38.534,
    "pitch": 62,
    "velocity": 68
  },
  {
    "start": 39.01,
    "pitch": 69,
    "velocity": 75
  },
  {
    "start": 39.312,
    "pitch": 48,
    "velocity": 40
  },
  {
    "start": 39.498,
    "pitch": 69,
    "velocity": 72
  },
  {
    "start": 39.51,
    "pitch": 36,
    "velocity": 48
  },
  {
    "start": 39.801,
    "pitch": 36,
    "velocity": 63
  },
  {
    "start": 39.801,
    "pitch": 48,
    "velocity": 40
  },
  {
    "start": 39.976,
    "pitch": 36,
    "velocity": 58
  },
  {
    "start": 40.022,
    "pitch": 69,
    "velocity": 66
  },
  {
    "start": 40.475,
    "pitch": 36,
    "velocity": 66
  },
  {
    "start": 40.475,
    "pitch": 62,
    "velocity": 75
  },
  {
    "start": 40.777,
    "pitch": 36,
    "velocity": 52
  },
  {
    "start": 40.94,
    "pitch": 36,
    "velocity": 56
  },
  {
    "start": 41.265,
    "pitch": 43,
    "velocity": 50
  },
  {
    "start": 41.276,
    "pitch": 31,
    "velocity": 60
  },
  {
    "start": 41.473,
    "pitch": 69,
    "velocity": 76
  },
  {
    "start": 41.694,
    "pitch": 31,
    "velocity": 68
  },
  {
    "start": 41.846,
    "pitch": 31,
    "velocity": 63
  },
  {
    "start": 41.939,
    "pitch": 69,
    "velocity": 57
  },
  {
    "start": 42.148,
    "pitch": 71,
    "velocity": 66
  },
  {
    "start": 42.241,
    "pitch": 43,
    "velocity": 53
  },
  {
    "start": 42.403,
    "pitch": 31,
    "velocity": 64
  },
  {
    "start": 42.543,
    "pitch": 31,
    "velocity": 48
  },
  {
    "start": 42.612,
    "pitch": 62,
    "velocity": 61
  },
  {
    "start": 42.717,
    "pitch": 31,
    "velocity": 76
  },
  {
    "start": 42.728,
    "pitch": 43,
    "velocity": 57
  },
  {
    "start": 42.915,
    "pitch": 43,
    "velocity": 51
  },
  {
    "start": 42.926,
    "pitch": 31,
    "velocity": 61
  },
  {
    "start": 43.309,
    "pitch": 38,
    "velocity": 48
  },
  {
    "start": 43.717,
    "pitch": 38,
    "velocity": 45
  },
  {
    "start": 43.821,
    "pitch": 69,
    "velocity": 52
  },
  {
    "start": 44.111,
    "pitch": 69,
    "velocity": 57
  },
  {
    "start": 44.703,
    "pitch": 66,
    "velocity": 76
  },
  {
    "start": 44.703,
    "pitch": 38,
    "velocity": 67
  },
  {
    "start": 45.064,
    "pitch": 78,
    "velocity": 44
  },
  {
    "start": 45.064,
    "pitch": 66,
    "velocity": 48
  },
  {
    "start": 46.098,
    "pitch": 64,
    "velocity": 72
  },
  {
    "start": 46.481,
    "pitch": 64,
    "velocity": 83
  },
  {
    "start": 47.131,
    "pitch": 36,
    "velocity": 108
  },
  {
    "start": 47.154,
    "pitch": 64,
    "velocity": 78
  },
  {
    "start": 47.468,
    "pitch": 67,
    "velocity": 70
  },
  {
    "start": 48.073,
    "pitch": 72,
    "velocity": 85
  },
  {
    "start": 48.27,
    "pitch": 71,
    "velocity": 97
  },
  {
    "start": 48.456,
    "pitch": 71,
    "velocity": 89
  },
  {
    "start": 48.944,
    "pitch": 62,
    "velocity": 79
  },
  {
    "start": 49.129,
    "pitch": 31,
    "velocity": 92
  },
  {
    "start": 49.454,
    "pitch": 67,
    "velocity": 74
  },
  {
    "start": 50.048,
    "pitch": 76,
    "velocity": 74
  },
  {
    "start": 50.095,
    "pitch": 43,
    "velocity": 91
  },
  {
    "start": 50.21,
    "pitch": 74,
    "velocity": 78
  },
  {
    "start": 50.396,
    "pitch": 74,
    "velocity": 78
  },
  {
    "start": 50.756,
    "pitch": 66,
    "velocity": 82
  },
  {
    "start": 50.907,
    "pitch": 62,
    "velocity": 52
  },
  {
    "start": 51.093,
    "pitch": 38,
    "velocity": 109
  },
  {
    "start": 51.383,
    "pitch": 69,
    "velocity": 81
  },
  {
    "start": 51.86,
    "pitch": 72,
    "velocity": 70
  },
  {
    "start": 52.011,
    "pitch": 74,
    "velocity": 87
  },
  {
    "start": 52.174,
    "pitch": 72,
    "velocity": 88
  },
  {
    "start": 52.348,
    "pitch": 72,
    "velocity": 63
  },
  {
    "start": 52.488,
    "pitch": 38,
    "velocity": 96
  },
  {
    "start": 52.639,
    "pitch": 72,
    "velocity": 83
  },
  {
    "start": 52.835,
    "pitch": 71,
    "velocity": 85
  },
  {
    "start": 53.056,
    "pitch": 40,
    "velocity": 104
  },
  {
    "start": 53.102,
    "pitch": 71,
    "velocity": 82
  },
  {
    "start": 53.347,
    "pitch": 71,
    "velocity": 73
  },
  {
    "start": 53.87,
    "pitch": 66,
    "velocity": 45
  },
  {
    "start": 54.253,
    "pitch": 66,
    "velocity": 82
  },
  {
    "start": 54.614,
    "pitch": 64,
    "velocity": 32
  },
  {
    "start": 54.788,
    "pitch": 64,
    "velocity": 74
  },
  {
    "start": 54.95,
    "pitch": 36,
    "velocity": 73
  },
  {
    "start": 55.135,
    "pitch": 64,
    "velocity": 51
  },
  {
    "start": 55.298,
    "pitch": 67,
    "velocity": 81
  },
  {
    "start": 55.88,
    "pitch": 72,
    "velocity": 59
  },
  {
    "start": 55.984,
    "pitch": 36,
    "velocity": 84
  },
  {
    "start": 56.089,
    "pitch": 71,
    "velocity": 81
  },
  {
    "start": 56.774,
    "pitch": 62,
    "velocity": 56
  },
  {
    "start": 56.902,
    "pitch": 31,
    "velocity": 71
  },
  {
    "start": 57.215,
    "pitch": 67,
    "velocity": 75
  },
  {
    "start": 57.227,
    "pitch": 79,
    "velocity": 33
  },
  {
    "start": 57.878,
    "pitch": 43,
    "velocity": 73
  },
  {
    "start": 58.018,
    "pitch": 74,
    "velocity": 57
  },
  {
    "start": 58.18,
    "pitch": 74,
    "velocity": 72
  },
  {
    "start": 58.598,
    "pitch": 66,
    "velocity": 47
  },
  {
    "start": 58.877,
    "pitch": 62,
    "velocity": 48
  },
  {
    "start": 58.889,
    "pitch": 38,
    "velocity": 51
  },
  {
    "start": 59.167,
    "pitch": 38,
    "velocity": 87
  },
  {
    "start": 59.178,
    "pitch": 69,
    "velocity": 73
  },
  {
    "start": 59.668,
    "pitch": 74,
    "velocity": 77
  },
  {
    "start": 59.969,
    "pitch": 38,
    "velocity": 76
  },
  {
    "start": 60.155,
    "pitch": 38,
    "velocity": 93
  },
  {
    "start": 60.503,
    "pitch": 38,
    "velocity": 54
  },
  {
    "start": 60.968,
    "pitch": 31,
    "velocity": 49
  },
  {
    "start": 60.991,
    "pitch": 50,
    "velocity": 37
  },
  {
    "start": 61.026,
    "pitch": 74,
    "velocity": 76
  },
  {
    "start": 61.223,
    "pitch": 74,
    "velocity": 83
  },
  {
    "start": 61.304,
    "pitch": 62,
    "velocity": 37
  },
  {
    "start": 61.362,
    "pitch": 74,
    "velocity": 71
  },
  {
    "start": 61.758,
    "pitch": 71,
    "velocity": 66
  },
  {
    "start": 61.979,
    "pitch": 83,
    "velocity": 40
  },
  {
    "start": 61.991,
    "pitch": 71,
    "velocity": 94
  },
  {
    "start": 62.408,
    "pitch": 76,
    "velocity": 87
  },
  {
    "start": 62.582,
    "pitch": 76,
    "velocity": 61
  },
  {
    "start": 62.745,
    "pitch": 48,
    "velocity": 49
  },
  {
    "start": 62.757,
    "pitch": 36,
    "velocity": 83
  },
  {
    "start": 62.908,
    "pitch": 36,
    "velocity": 67
  },
  {
    "start": 63.082,
    "pitch": 76,
    "velocity": 66
  },
  {
    "start": 63.128,
    "pitch": 48,
    "velocity": 52
  },
  {
    "start": 63.372,
    "pitch": 36,
    "velocity": 69
  },
  {
    "start": 63.558,
    "pitch": 76,
    "velocity": 74
  },
  {
    "start": 63.699,
    "pitch": 48,
    "velocity": 40
  },
  {
    "start": 63.722,
    "pitch": 36,
    "velocity": 76
  },
  {
    "start": 63.873,
    "pitch": 36,
    "velocity": 69
  },
  {
    "start": 64.058,
    "pitch": 71,
    "velocity": 46
  },
  {
    "start": 64.081,
    "pitch": 83,
    "velocity": 49
  },
  {
    "start": 64.209,
    "pitch": 36,
    "velocity": 73
  },
  {
    "start": 64.349,
    "pitch": 74,
    "velocity": 60
  },
  {
    "start": 64.557,
    "pitch": 74,
    "velocity": 84
  },
  {
    "start": 64.732,
    "pitch": 38,
    "velocity": 72
  },
  {
    "start": 64.732,
    "pitch": 74,
    "velocity": 76
  },
  {
    "start": 65.196,
    "pitch": 38,
    "velocity": 84
  },
  {
    "start": 65.335,
    "pitch": 38,
    "velocity": 61
  },
  {
    "start": 65.639,
    "pitch": 74,
    "velocity": 85
  },
  {
    "start": 65.674,
    "pitch": 38,
    "velocity": 86
  },
  {
    "start": 65.801,
    "pitch": 74,
    "velocity": 48
  },
  {
    "start": 65.825,
    "pitch": 38,
    "velocity": 71
  },
  {
    "start": 66.115,
    "pitch": 38,
    "velocity": 63
  },
  {
    "start": 66.15,
    "pitch": 72,
    "velocity": 66
  },
  {
    "start": 66.312,
    "pitch": 38,
    "velocity": 70
  },
  {
    "start": 66.486,
    "pitch": 72,
    "velocity": 61
  },
  {
    "start": 66.556,
    "pitch": 31,
    "velocity": 70
  },
  {
    "start": 66.811,
    "pitch": 71,
    "velocity": 70
  },
  {
    "start": 67.136,
    "pitch": 43,
    "velocity": 48
  },
  {
    "start": 67.591,
    "pitch": 74,
    "velocity": 81
  },
  {
    "start": 67.591,
    "pitch": 30,
    "velocity": 58
  },
  {
    "start": 67.788,
    "pitch": 74,
    "velocity": 64
  },
  {
    "start": 68.09,
    "pitch": 72,
    "velocity": 67
  },
  {
    "start": 68.415,
    "pitch": 72,
    "velocity": 69
  },
  {
    "start": 68.612,
    "pitch": 28,
    "velocity": 58
  },
  {
    "start": 68.74,
    "pitch": 71,
    "velocity": 67
  },
  {
    "start": 69.529,
    "pitch": 81,
    "velocity": 56
  },
  {
    "start": 69.53,
    "pitch": 40,
    "velocity": 46
  },
  {
    "start": 69.554,
    "pitch": 69,
    "velocity": 52
  },
  {
    "start": 69.809,
    "pitch": 71,
    "velocity": 42
  },
  {
    "start": 70.076,
    "pitch": 79,
    "velocity": 45
  },
  {
    "start": 70.076,
    "pitch": 67,
    "velocity": 50
  },
  {
    "start": 70.471,
    "pitch": 36,
    "velocity": 69
  },
  {
    "start": 70.529,
    "pitch": 76,
    "velocity": 74
  },
  {
    "start": 70.541,
    "pitch": 48,
    "velocity": 52
  },
  {
    "start": 70.703,
    "pitch": 36,
    "velocity": 68
  },
  {
    "start": 70.703,
    "pitch": 48,
    "velocity": 44
  },
  {
    "start": 70.889,
    "pitch": 76,
    "velocity": 76
  },
  {
    "start": 71.028,
    "pitch": 48,
    "velocity": 57
  },
  {
    "start": 71.051,
    "pitch": 36,
    "velocity": 79
  },
  {
    "start": 71.191,
    "pitch": 36,
    "velocity": 71
  },
  {
    "start": 71.446,
    "pitch": 79,
    "velocity": 68
  },
  {
    "start": 71.541,
    "pitch": 36,
    "velocity": 80
  },
  {
    "start": 71.68,
    "pitch": 36,
    "velocity": 68
  },
  {
    "start": 71.726,
    "pitch": 78,
    "velocity": 80
  },
  {
    "start": 71.994,
    "pitch": 74,
    "velocity": 76
  },
  {
    "start": 72.005,
    "pitch": 36,
    "velocity": 75
  },
  {
    "start": 72.168,
    "pitch": 36,
    "velocity": 73
  },
  {
    "start": 72.33,
    "pitch": 86,
    "velocity": 53
  },
  {
    "start": 72.342,
    "pitch": 74,
    "velocity": 82
  },
  {
    "start": 72.516,
    "pitch": 38,
    "velocity": 78
  },
  {
    "start": 72.632,
    "pitch": 74,
    "velocity": 75
  },
  {
    "start": 72.992,
    "pitch": 38,
    "velocity": 84
  },
  {
    "start": 73.154,
    "pitch": 38,
    "velocity": 80
  },
  {
    "start": 73.305,
    "pitch": 38,
    "velocity": 53
  },
  {
    "start": 73.409,
    "pitch": 74,
    "velocity": 79
  },
  {
    "start": 73.468,
    "pitch": 38,
    "velocity": 90
  },
  {
    "start": 73.608,
    "pitch": 74,
    "velocity": 59
  },
  {
    "start": 73.712,
    "pitch": 38,
    "velocity": 57
  },
  {
    "start": 73.956,
    "pitch": 72,
    "velocity": 32
  },
  {
    "start": 74.107,
    "pitch": 38,
    "velocity": 73
  },
  {
    "start": 74.131,
    "pitch": 72,
    "velocity": 62
  },
  {
    "start": 74.444,
    "pitch": 31,
    "velocity": 73
  },
  {
    "start": 74.607,
    "pitch": 71,
    "velocity": 69
  },
  {
    "start": 75.095,
    "pitch": 31,
    "velocity": 69
  },
  {
    "start": 75.396,
    "pitch": 74,
    "velocity": 78
  },
  {
    "start": 75.42,
    "pitch": 30,
    "velocity": 60
  },
  {
    "start": 75.595,
    "pitch": 74,
    "velocity": 65
  },
  {
    "start": 75.897,
    "pitch": 72,
    "velocity": 69
  },
  {
    "start": 76.071,
    "pitch": 30,
    "velocity": 63
  },
  {
    "start": 76.222,
    "pitch": 72,
    "velocity": 76
  },
  {
    "start": 76.407,
    "pitch": 72,
    "velocity": 64
  },
  {
    "start": 76.419,
    "pitch": 28,
    "velocity": 51
  },
  {
    "start": 76.675,
    "pitch": 28,
    "velocity": 42
  },
  {
    "start": 76.838,
    "pitch": 31,
    "velocity": 42
  },
  {
    "start": 77.185,
    "pitch": 31,
    "velocity": 47
  },
  {
    "start": 77.383,
    "pitch": 81,
    "velocity": 55
  },
  {
    "start": 77.406,
    "pitch": 28,
    "velocity": 51
  },
  {
    "start": 77.906,
    "pitch": 79,
    "velocity": 58
  },
  {
    "start": 77.918,
    "pitch": 55,
    "velocity": 52
  },
  {
    "start": 77.93,
    "pitch": 67,
    "velocity": 55
  },
  {
    "start": 78.197,
    "pitch": 64,
    "velocity": 45
  },
  {
    "start": 78.244,
    "pitch": 52,
    "velocity": 43
  },
  {
    "start": 78.267,
    "pitch": 36,
    "velocity": 72
  },
  {
    "start": 78.278,
    "pitch": 48,
    "velocity": 57
  },
  {
    "start": 78.51,
    "pitch": 36,
    "velocity": 61
  },
  {
    "start": 78.673,
    "pitch": 79,
    "velocity": 54
  },
  {
    "start": 78.673,
    "pitch": 55,
    "velocity": 39
  },
  {
    "start": 78.673,
    "pitch": 67,
    "velocity": 56
  },
  {
    "start": 78.754,
    "pitch": 48,
    "velocity": 45
  },
  {
    "start": 78.858,
    "pitch": 36,
    "velocity": 81
  },
  {
    "start": 79.311,
    "pitch": 36,
    "velocity": 78
  },
  {
    "start": 79.475,
    "pitch": 36,
    "velocity": 70
  },
  {
    "start": 79.475,
    "pitch": 71,
    "velocity": 73
  },
  {
    "start": 79.649,
    "pitch": 71,
    "velocity": 74
  },
  {
    "start": 79.928,
    "pitch": 36,
    "velocity": 69
  },
  {
    "start": 79.974,
    "pitch": 62,
    "velocity": 50
  },
  {
    "start": 80.138,
    "pitch": 62,
    "velocity": 68
  },
  {
    "start": 80.183,
    "pitch": 50,
    "velocity": 44
  },
  {
    "start": 80.3,
    "pitch": 38,
    "velocity": 77
  },
  {
    "start": 80.659,
    "pitch": 66,
    "velocity": 66
  },
  {
    "start": 80.776,
    "pitch": 50,
    "velocity": 42
  },
  {
    "start": 80.788,
    "pitch": 38,
    "velocity": 83
  },
  {
    "start": 80.973,
    "pitch": 38,
    "velocity": 69
  },
  {
    "start": 81.251,
    "pitch": 76,
    "velocity": 68
  },
  {
    "start": 81.286,
    "pitch": 38,
    "velocity": 89
  },
  {
    "start": 81.438,
    "pitch": 50,
    "velocity": 50
  },
  {
    "start": 81.438,
    "pitch": 74,
    "velocity": 70
  },
  {
    "start": 81.438,
    "pitch": 62,
    "velocity": 47
  },
  {
    "start": 81.449,
    "pitch": 38,
    "velocity": 69
  },
  {
    "start": 81.59,
    "pitch": 74,
    "velocity": 71
  },
  {
    "start": 81.926,
    "pitch": 38,
    "velocity": 79
  },
  {
    "start": 81.938,
    "pitch": 67,
    "velocity": 58
  },
  {
    "start": 82.089,
    "pitch": 71,
    "velocity": 47
  },
  {
    "start": 82.147,
    "pitch": 31,
    "velocity": 70
  },
  {
    "start": 82.17,
    "pitch": 43,
    "velocity": 53
  },
  {
    "start": 82.588,
    "pitch": 71,
    "velocity": 66
  },
  {
    "start": 82.704,
    "pitch": 67,
    "velocity": 40
  },
  {
    "start": 82.727,
    "pitch": 43,
    "velocity": 51
  },
  {
    "start": 83.239,
    "pitch": 30,
    "velocity": 62
  },
  {
    "start": 83.412,
    "pitch": 78,
    "velocity": 75
  },
  {
    "start": 83.89,
    "pitch": 67,
    "velocity": 45
  },
  {
    "start": 83.89,
    "pitch": 79,
    "velocity": 74
  },
  {
    "start": 84.226,
    "pitch": 28,
    "velocity": 57
  },
  {
    "start": 84.517,
    "pitch": 76,
    "velocity": 60
  },
  {
    "start": 85.447,
    "pitch": 28,
    "velocity": 61
  },
  {
    "start": 85.83,
    "pitch": 76,
    "velocity": 52
  },
  {
    "start": 85.83,
    "pitch": 28,
    "velocity": 53
  },
  {
    "start": 85.842,
    "pitch": 64,
    "velocity": 60
  },
  {
    "start": 86.074,
    "pitch": 36,
    "velocity": 68
  },
  {
    "start": 86.108,
    "pitch": 48,
    "velocity": 51
  },
  {
    "start": 86.19,
    "pitch": 52,
    "velocity": 48
  },
  {
    "start": 86.306,
    "pitch": 36,
    "velocity": 70
  },
  {
    "start": 86.503,
    "pitch": 67,
    "velocity": 66
  },
  {
    "start": 86.55,
    "pitch": 48,
    "velocity": 49
  },
  {
    "start": 86.619,
    "pitch": 36,
    "velocity": 68
  },
  {
    "start": 86.805,
    "pitch": 36,
    "velocity": 69
  },
  {
    "start": 87.049,
    "pitch": 72,
    "velocity": 71
  },
  {
    "start": 87.083,
    "pitch": 84,
    "velocity": 56
  },
  {
    "start": 87.153,
    "pitch": 36,
    "velocity": 73
  },
  {
    "start": 87.281,
    "pitch": 71,
    "velocity": 65
  },
  {
    "start": 87.456,
    "pitch": 71,
    "velocity": 57
  },
  {
    "start": 87.735,
    "pitch": 36,
    "velocity": 69
  },
  {
    "start": 87.955,
    "pitch": 62,
    "velocity": 72
  },
  {
    "start": 87.955,
    "pitch": 50,
    "velocity": 60
  },
  {
    "start": 88.106,
    "pitch": 38,
    "velocity": 76
  },
  {
    "start": 88.467,
    "pitch": 66,
    "velocity": 64
  },
  {
    "start": 88.536,
    "pitch": 30,
    "velocity": 31
  },
  {
    "start": 88.594,
    "pitch": 38,
    "velocity": 71
  },
  {
    "start": 88.675,
    "pitch": 50,
    "velocity": 39
  },
  {
    "start": 88.745,
    "pitch": 38,
    "velocity": 60
  },
  {
    "start": 88.792,
    "pitch": 62,
    "velocity": 35
  },
  {
    "start": 89.094,
    "pitch": 38,
    "velocity": 82
  },
  {
    "start": 89.221,
    "pitch": 74,
    "velocity": 40
  },
  {
    "start": 89.256,
    "pitch": 38,
    "velocity": 58
  },
  {
    "start": 89.42,
    "pitch": 74,
    "velocity": 64
  },
  {
    "start": 89.722,
    "pitch": 38,
    "velocity": 66
  },
  {
    "start": 89.896,
    "pitch": 67,
    "velocity": 69
  },
  {
    "start": 89.93,
    "pitch": 55,
    "velocity": 48
  },
  {
    "start": 89.954,
    "pitch": 31,
    "velocity": 72
  },
  {
    "start": 90.047,
    "pitch": 67,
    "velocity": 62
  },
  {
    "start": 90.047,
    "pitch": 43,
    "velocity": 56
  },
  {
    "start": 90.43,
    "pitch": 71,
    "velocity": 65
  },
  {
    "start": 90.999,
    "pitch": 81,
    "velocity": 58
  },
  {
    "start": 91.022,
    "pitch": 30,
    "velocity": 59
  },
  {
    "start": 91.207,
    "pitch": 78,
    "velocity": 64
  },
  {
    "start": 91.358,
    "pitch": 78,
    "velocity": 57
  },
  {
    "start": 91.358,
    "pitch": 66,
    "velocity": 43
  },
  {
    "start": 91.685,
    "pitch": 78,
    "velocity": 65
  },
  {
    "start": 91.882,
    "pitch": 79,
    "velocity": 82
  },
  {
    "start": 92.033,
    "pitch": 28,
    "velocity": 50
  },
  {
    "start": 92.056,
    "pitch": 67,
    "velocity": 41
  },
  {
    "start": 92.324,
    "pitch": 67,
    "velocity": 45
  },
  {
    "start": 92.324,
    "pitch": 79,
    "velocity": 68
  },
  {
    "start": 92.417,
    "pitch": 28,
    "velocity": 66
  },
  {
    "start": 92.649,
    "pitch": 76,
    "velocity": 66
  },
  {
    "start": 92.649,
    "pitch": 64,
    "velocity": 52
  },
  {
    "start": 93.485,
    "pitch": 67,
    "velocity": 48
  },
  {
    "start": 95.308,
    "pitch": 55,
    "velocity": 86
  },
  {
    "start": 95.507,
    "pitch": 55,
    "velocity": 73
  },
  {
    "start": 95.855,
    "pitch": 79,
    "velocity": 57
  },
  {
    "start": 95.855,
    "pitch": 67,
    "velocity": 78
  },
  {
    "start": 95.925,
    "pitch": 52,
    "velocity": 66
  },
  {
    "start": 95.936,
    "pitch": 55,
    "velocity": 60
  },
  {
    "start": 96.053,
    "pitch": 47,
    "velocity": 62
  },
  {
    "start": 96.076,
    "pitch": 69,
    "velocity": 88
  },
  {
    "start": 96.239,
    "pitch": 67,
    "velocity": 72
  },
  {
    "start": 96.401,
    "pitch": 67,
    "velocity": 74
  },
  {
    "start": 96.575,
    "pitch": 67,
    "velocity": 71
  },
  {
    "start": 96.796,
    "pitch": 67,
    "velocity": 73
  },
  {
    "start": 97.028,
    "pitch": 52,
    "velocity": 46
  },
  {
    "start": 97.098,
    "pitch": 47,
    "velocity": 59
  },
  {
    "start": 97.214,
    "pitch": 66,
    "velocity": 55
  },
  {
    "start": 97.482,
    "pitch": 66,
    "velocity": 85
  },
  {
    "start": 97.866,
    "pitch": 64,
    "velocity": 82
  },
  {
    "start": 97.981,
    "pitch": 50,
    "velocity": 57
  },
  {
    "start": 98.004,
    "pitch": 45,
    "velocity": 50
  },
  {
    "start": 98.017,
    "pitch": 78,
    "velocity": 43
  },
  {
    "start": 98.017,
    "pitch": 66,
    "velocity": 77
  },
  {
    "start": 98.028,
    "pitch": 54,
    "velocity": 54
  },
  {
    "start": 98.225,
    "pitch": 66,
    "velocity": 82
  },
  {
    "start": 98.365,
    "pitch": 66,
    "velocity": 49
  },
  {
    "start": 98.748,
    "pitch": 50,
    "velocity": 37
  },
  {
    "start": 98.759,
    "pitch": 62,
    "velocity": 65
  },
  {
    "start": 99.317,
    "pitch": 59,
    "velocity": 90
  },
  {
    "start": 99.55,
    "pitch": 59,
    "velocity": 79
  },
  {
    "start": 99.886,
    "pitch": 62,
    "velocity": 80
  },
  {
    "start": 99.956,
    "pitch": 50,
    "velocity": 57
  },
  {
    "start": 99.992,
    "pitch": 54,
    "velocity": 51
  },
  {
    "start": 100.003,
    "pitch": 57,
    "velocity": 56
  },
  {
    "start": 100.026,
    "pitch": 64,
    "velocity": 78
  },
  {
    "start": 100.572,
    "pitch": 62,
    "velocity": 44
  },
  {
    "start": 101.036,
    "pitch": 59,
    "velocity": 97
  },
  {
    "start": 101.094,
    "pitch": 54,
    "velocity": 42
  },
  {
    "start": 101.548,
    "pitch": 59,
    "velocity": 67
  },
  {
    "start": 101.839,
    "pitch": 55,
    "velocity": 81
  },
  {
    "start": 101.861,
    "pitch": 59,
    "velocity": 43
  },
  {
    "start": 101.873,
    "pitch": 67,
    "velocity": 30
  },
  {
    "start": 101.873,
    "pitch": 64,
    "velocity": 50
  },
  {
    "start": 101.931,
    "pitch": 48,
    "velocity": 59
  },
  {
    "start": 101.978,
    "pitch": 52,
    "velocity": 59
  },
  {
    "start": 102.001,
    "pitch": 59,
    "velocity": 82
  },
  {
    "start": 102.001,
    "pitch": 55,
    "velocity": 69
  },
  {
    "start": 103.29,
    "pitch": 55,
    "velocity": 71
  },
  {
    "start": 103.547,
    "pitch": 55,
    "velocity": 66
  },
  {
    "start": 103.872,
    "pitch": 79,
    "velocity": 58
  },
  {
    "start": 103.872,
    "pitch": 67,
    "velocity": 80
  },
  {
    "start": 103.929,
    "pitch": 47,
    "velocity": 58
  },
  {
    "start": 103.965,
    "pitch": 50,
    "velocity": 54
  },
  {
    "start": 104.023,
    "pitch": 55,
    "velocity": 51
  },
  {
    "start": 104.069,
    "pitch": 69,
    "velocity": 65
  },
  {
    "start": 104.255,
    "pitch": 67,
    "velocity": 87
  },
  {
    "start": 104.267,
    "pitch": 79,
    "velocity": 58
  },
  {
    "start": 104.522,
    "pitch": 50,
    "velocity": 43
  },
  {
    "start": 104.638,
    "pitch": 67,
    "velocity": 81
  },
  {
    "start": 105.079,
    "pitch": 78,
    "velocity": 55
  },
  {
    "start": 105.079,
    "pitch": 66,
    "velocity": 79
  },
  {
    "start": 105.428,
    "pitch": 66,
    "velocity": 69
  },
  {
    "start": 105.754,
    "pitch": 64,
    "velocity": 81
  },
  {
    "start": 105.811,
    "pitch": 50,
    "velocity": 37
  },
  {
    "start": 105.881,
    "pitch": 66,
    "velocity": 81
  },
  {
    "start": 105.962,
    "pitch": 50,
    "velocity": 56
  },
  {
    "start": 105.998,
    "pitch": 45,
    "velocity": 49
  },
  {
    "start": 106.021,
    "pitch": 54,
    "velocity": 61
  },
  {
    "start": 106.334,
    "pitch": 45,
    "velocity": 52
  },
  {
    "start": 106.543,
    "pitch": 62,
    "velocity": 79
  },
  {
    "start": 106.694,
    "pitch": 66,
    "velocity": 46
  },
  {
    "start": 107.181,
    "pitch": 59,
    "velocity": 55
  },
  {
    "start": 107.228,
    "pitch": 54,
    "velocity": 43
  },
  {
    "start": 107.357,
    "pitch": 59,
    "velocity": 87
  },
  {
    "start": 107.717,
    "pitch": 64,
    "velocity": 90
  },
  {
    "start": 107.729,
    "pitch": 76,
    "velocity": 42
  },
  {
    "start": 107.879,
    "pitch": 50,
    "velocity": 49
  },
  {
    "start": 107.892,
    "pitch": 57,
    "velocity": 54
  },
  {
    "start": 107.903,
    "pitch": 54,
    "velocity": 60
  },
  {
    "start": 108.135,
    "pitch": 62,
    "velocity": 52
  },
  {
    "start": 108.797,
    "pitch": 62,
    "velocity": 32
  },
  {
    "start": 108.994,
    "pitch": 90,
    "velocity": 37
  },
  {
    "start": 109.006,
    "pitch": 62,
    "velocity": 91
  },
  {
    "start": 109.18,
    "pitch": 59,
    "velocity": 91
  },
  {
    "start": 109.367,
    "pitch": 59,
    "velocity": 98
  },
  {
    "start": 109.436,
    "pitch": 50,
    "velocity": 47
  },
  {
    "start": 109.622,
    "pitch": 59,
    "velocity": 80
  },
  {
    "start": 109.935,
    "pitch": 64,
    "velocity": 44
  },
  {
    "start": 109.935,
    "pitch": 55,
    "velocity": 70
  },
  {
    "start": 109.948,
    "pitch": 48,
    "velocity": 58
  },
  {
    "start": 110.064,
    "pitch": 52,
    "velocity": 63
  },
  {
    "start": 110.145,
    "pitch": 59,
    "velocity": 81
  },
  {
    "start": 110.145,
    "pitch": 64,
    "velocity": 43
  },
  {
    "start": 111.759,
    "pitch": 52,
    "velocity": 58
  },
  {
    "start": 111.934,
    "pitch": 52,
    "velocity": 75
  },
  {
    "start": 111.946,
    "pitch": 40,
    "velocity": 77
  },
  {
    "start": 112.248,
    "pitch": 62,
    "velocity": 45
  },
  {
    "start": 112.41,
    "pitch": 55,
    "velocity": 86
  },
  {
    "start": 113.049,
    "pitch": 60,
    "velocity": 81
  },
  {
    "start": 113.223,
    "pitch": 59,
    "velocity": 77
  },
  {
    "start": 113.409,
    "pitch": 59,
    "velocity": 70
  },
  {
    "start": 113.874,
    "pitch": 50,
    "velocity": 65
  },
  {
    "start": 113.874,
    "pitch": 38,
    "velocity": 92
  },
  {
    "start": 114.176,
    "pitch": 66,
    "velocity": 45
  },
  {
    "start": 114.327,
    "pitch": 62,
    "velocity": 38
  },
  {
    "start": 114.397,
    "pitch": 54,
    "velocity": 77
  },
  {
    "start": 114.582,
    "pitch": 57,
    "velocity": 46
  },
  {
    "start": 115.011,
    "pitch": 64,
    "velocity": 77
  },
  {
    "start": 115.186,
    "pitch": 62,
    "velocity": 78
  },
  {
    "start": 115.384,
    "pitch": 62,
    "velocity": 80
  },
  {
    "start": 115.384,
    "pitch": 74,
    "velocity": 50
  },
  {
    "start": 115.652,
    "pitch": 59,
    "velocity": 77
  },
  {
    "start": 115.837,
    "pitch": 38,
    "velocity": 56
  },
  {
    "start": 115.849,
    "pitch": 35,
    "velocity": 89
  },
  {
    "start": 115.896,
    "pitch": 59,
    "velocity": 75
  },
  {
    "start": 116.36,
    "pitch": 62,
    "velocity": 78
  },
  {
    "start": 117.01,
    "pitch": 69,
    "velocity": 77
  },
  {
    "start": 117.173,
    "pitch": 66,
    "velocity": 74
  },
  {
    "start": 117.336,
    "pitch": 66,
    "velocity": 71
  },
  {
    "start": 117.639,
    "pitch": 67,
    "velocity": 78
  },
  {
    "start": 117.859,
    "pitch": 36,
    "velocity": 81
  },
  {
    "start": 118.474,
    "pitch": 67,
    "velocity": 44
  },
  {
    "start": 119.427,
    "pitch": 78,
    "velocity": 38
  },
  {
    "start": 119.427,
    "pitch": 66,
    "velocity": 68
  },
  {
    "start": 119.88,
    "pitch": 64,
    "velocity": 66
  },
  {
    "start": 119.903,
    "pitch": 40,
    "velocity": 97
  },
  {
    "start": 119.927,
    "pitch": 62,
    "velocity": 41
  },
  {
    "start": 120.392,
    "pitch": 67,
    "velocity": 58
  },
  {
    "start": 120.449,
    "pitch": 91,
    "velocity": 57
  },
  {
    "start": 121.076,
    "pitch": 72,
    "velocity": 74
  },
  {
    "start": 121.194,
    "pitch": 62,
    "velocity": 40
  },
  {
    "start": 121.391,
    "pitch": 83,
    "velocity": 44
  },
  {
    "start": 121.391,
    "pitch": 71,
    "velocity": 71
  },
  {
    "start": 121.832,
    "pitch": 40,
    "velocity": 67
  },
  {
    "start": 121.902,
    "pitch": 62,
    "velocity": 65
  },
  {
    "start": 121.983,
    "pitch": 35,
    "velocity": 94
  },
  {
    "start": 122.401,
    "pitch": 66,
    "velocity": 72
  },
  {
    "start": 122.459,
    "pitch": 62,
    "velocity": 39
  },
  {
    "start": 123.144,
    "pitch": 74,
    "velocity": 72
  },
  {
    "start": 123.377,
    "pitch": 74,
    "velocity": 68
  },
  {
    "start": 123.622,
    "pitch": 71,
    "velocity": 70
  },
  {
    "start": 123.866,
    "pitch": 83,
    "velocity": 49
  },
  {
    "start": 123.866,
    "pitch": 71,
    "velocity": 72
  },
  {
    "start": 124.028,
    "pitch": 36,
    "velocity": 91
  },
  {
    "start": 124.62,
    "pitch": 71,
    "velocity": 81
  },
  {
    "start": 125.015,
    "pitch": 71,
    "velocity": 70
  },
  {
    "start": 125.503,
    "pitch": 74,
    "velocity": 74
  },
  {
    "start": 125.515,
    "pitch": 55,
    "velocity": 49
  },
  {
    "start": 126.119,
    "pitch": 38,
    "velocity": 96
  },
  {
    "start": 127.105,
    "pitch": 79,
    "velocity": 73
  },
  {
    "start": 127.421,
    "pitch": 78,
    "velocity": 73
  },
  {
    "start": 127.455,
    "pitch": 62,
    "velocity": 43
  },
  {
    "start": 127.49,
    "pitch": 50,
    "velocity": 44
  },
  {
    "start": 127.757,
    "pitch": 76,
    "velocity": 61
  },
  {
    "start": 127.908,
    "pitch": 38,
    "velocity": 69
  },
  {
    "start": 128.233,
    "pitch": 48,
    "velocity": 46
  },
  {
    "start": 128.256,
    "pitch": 36,
    "velocity": 82
  },
  {
    "start": 128.396,
    "pitch": 36,
    "velocity": 76
  },
  {
    "start": 128.547,
    "pitch": 36,
    "velocity": 45
  },
  {
    "start": 128.558,
    "pitch": 76,
    "velocity": 63
  },
  {
    "start": 128.709,
    "pitch": 48,
    "velocity": 44
  },
  {
    "start": 128.767,
    "pitch": 36,
    "velocity": 77
  },
  {
    "start": 129.057,
    "pitch": 76,
    "velocity": 66
  },
  {
    "start": 129.186,
    "pitch": 36,
    "velocity": 74
  },
  {
    "start": 129.198,
    "pitch": 48,
    "velocity": 37
  },
  {
    "start": 129.349,
    "pitch": 36,
    "velocity": 73
  },
  {
    "start": 129.534,
    "pitch": 71,
    "velocity": 45
  },
  {
    "start": 129.581,
    "pitch": 83,
    "velocity": 54
  },
  {
    "start": 129.755,
    "pitch": 36,
    "velocity": 72
  },
  {
    "start": 129.848,
    "pitch": 74,
    "velocity": 50
  },
  {
    "start": 130.057,
    "pitch": 74,
    "velocity": 74
  },
  {
    "start": 130.197,
    "pitch": 38,
    "velocity": 72
  },
  {
    "start": 130.696,
    "pitch": 38,
    "velocity": 87
  },
  {
    "start": 130.847,
    "pitch": 38,
    "velocity": 64
  },
  {
    "start": 131.126,
    "pitch": 74,
    "velocity": 58
  },
  {
    "start": 131.161,
    "pitch": 38,
    "velocity": 80
  },
  {
    "start": 131.335,
    "pitch": 38,
    "velocity": 68
  },
  {
    "start": 131.615,
    "pitch": 38,
    "velocity": 65
  },
  {
    "start": 131.615,
    "pitch": 72,
    "velocity": 67
  },
  {
    "start": 131.8,
    "pitch": 38,
    "velocity": 73
  },
  {
    "start": 131.985,
    "pitch": 72,
    "velocity": 46
  },
  {
    "start": 132.136,
    "pitch": 31,
    "velocity": 72
  },
  {
    "start": 132.31,
    "pitch": 71,
    "velocity": 71
  },
  {
    "start": 132.612,
    "pitch": 43,
    "velocity": 44
  },
  {
    "start": 133.066,
    "pitch": 30,
    "velocity": 62
  },
  {
    "start": 133.089,
    "pitch": 74,
    "velocity": 80
  },
  {
    "start": 133.276,
    "pitch": 74,
    "velocity": 65
  },
  {
    "start": 133.59,
    "pitch": 72,
    "velocity": 67
  },
  {
    "start": 133.915,
    "pitch": 72,
    "velocity": 56
  },
  {
    "start": 134.111,
    "pitch": 28,
    "velocity": 54
  },
  {
    "start": 134.228,
    "pitch": 83,
    "velocity": 46
  },
  {
    "start": 134.228,
    "pitch": 71,
    "velocity": 67
  },
  {
    "start": 134.495,
    "pitch": 28,
    "velocity": 60
  },
  {
    "start": 134.982,
    "pitch": 40,
    "velocity": 45
  },
  {
    "start": 135.029,
    "pitch": 81,
    "velocity": 50
  },
  {
    "start": 135.029,
    "pitch": 69,
    "velocity": 51
  },
  {
    "start": 135.086,
    "pitch": 47,
    "velocity": 51
  },
  {
    "start": 135.297,
    "pitch": 83,
    "velocity": 50
  },
  {
    "start": 135.565,
    "pitch": 79,
    "velocity": 50
  },
  {
    "start": 135.565,
    "pitch": 67,
    "velocity": 49
  },
  {
    "start": 135.994,
    "pitch": 76,
    "velocity": 70
  },
  {
    "start": 136.017,
    "pitch": 48,
    "velocity": 49
  },
  {
    "start": 136.041,
    "pitch": 36,
    "velocity": 82
  },
  {
    "start": 136.203,
    "pitch": 36,
    "velocity": 71
  },
  {
    "start": 136.366,
    "pitch": 48,
    "velocity": 52
  },
  {
    "start": 136.377,
    "pitch": 76,
    "velocity": 77
  },
  {
    "start": 136.517,
    "pitch": 36,
    "velocity": 71
  },
  {
    "start": 136.691,
    "pitch": 36,
    "velocity": 75
  },
  {
    "start": 136.946,
    "pitch": 79,
    "velocity": 70
  },
  {
    "start": 136.992,
    "pitch": 36,
    "velocity": 75
  },
  {
    "start": 137.168,
    "pitch": 36,
    "velocity": 71
  },
  {
    "start": 137.179,
    "pitch": 78,
    "velocity": 80
  },
  {
    "start": 137.481,
    "pitch": 74,
    "velocity": 72
  },
  {
    "start": 137.504,
    "pitch": 36,
    "velocity": 82
  },
  {
    "start": 137.655,
    "pitch": 36,
    "velocity": 73
  },
  {
    "start": 137.829,
    "pitch": 74,
    "velocity": 75
  },
  {
    "start": 137.992,
    "pitch": 38,
    "velocity": 77
  },
  {
    "start": 138.491,
    "pitch": 38,
    "velocity": 86
  },
  {
    "start": 138.642,
    "pitch": 38,
    "velocity": 81
  },
  {
    "start": 138.793,
    "pitch": 38,
    "velocity": 66
  },
  {
    "start": 138.898,
    "pitch": 74,
    "velocity": 75
  },
  {
    "start": 138.979,
    "pitch": 38,
    "velocity": 89
  },
  {
    "start": 139.107,
    "pitch": 74,
    "velocity": 58
  },
  {
    "start": 139.107,
    "pitch": 50,
    "velocity": 47
  },
  {
    "start": 139.201,
    "pitch": 38,
    "velocity": 66
  },
  {
    "start": 139.445,
    "pitch": 72,
    "velocity": 31
  },
  {
    "start": 139.607,
    "pitch": 38,
    "velocity": 75
  },
  {
    "start": 139.63,
    "pitch": 72,
    "velocity": 53
  },
  {
    "start": 139.944,
    "pitch": 31,
    "velocity": 73
  },
  {
    "start": 139.955,
    "pitch": 43,
    "velocity": 45
  },
  {
    "start": 140.083,
    "pitch": 71,
    "velocity": 69
  },
  {
    "start": 140.594,
    "pitch": 31,
    "velocity": 71
  },
  {
    "start": 140.884,
    "pitch": 74,
    "velocity": 75
  },
  {
    "start": 140.907,
    "pitch": 30,
    "velocity": 59
  },
  {
    "start": 141.082,
    "pitch": 74,
    "velocity": 65
  },
  {
    "start": 141.396,
    "pitch": 72,
    "velocity": 70
  },
  {
    "start": 141.721,
    "pitch": 72,
    "velocity": 56
  },
  {
    "start": 141.907,
    "pitch": 28,
    "velocity": 44
  },
  {
    "start": 142.348,
    "pitch": 33,
    "velocity": 34
  },
  {
    "start": 142.348,
    "pitch": 31,
    "velocity": 44
  },
  {
    "start": 142.65,
    "pitch": 31,
    "velocity": 40
  },
  {
    "start": 142.731,
    "pitch": 28,
    "velocity": 43
  },
  {
    "start": 142.871,
    "pitch": 47,
    "velocity": 42
  },
  {
    "start": 142.882,
    "pitch": 81,
    "velocity": 46
  },
  {
    "start": 142.882,
    "pitch": 69,
    "velocity": 58
  },
  {
    "start": 143.174,
    "pitch": 71,
    "velocity": 57
  },
  {
    "start": 143.406,
    "pitch": 79,
    "velocity": 53
  },
  {
    "start": 143.406,
    "pitch": 67,
    "velocity": 59
  },
  {
    "start": 143.684,
    "pitch": 64,
    "velocity": 46
  },
  {
    "start": 143.754,
    "pitch": 36,
    "velocity": 73
  },
  {
    "start": 143.835,
    "pitch": 48,
    "velocity": 53
  },
  {
    "start": 143.998,
    "pitch": 36,
    "velocity": 66
  },
  {
    "start": 144.172,
    "pitch": 79,
    "velocity": 41
  },
  {
    "start": 144.172,
    "pitch": 67,
    "velocity": 51
  },
  {
    "start": 144.277,
    "pitch": 55,
    "velocity": 47
  },
  {
    "start": 144.474,
    "pitch": 36,
    "velocity": 70
  },
  {
    "start": 144.81,
    "pitch": 84,
    "velocity": 52
  },
  {
    "start": 144.823,
    "pitch": 48,
    "velocity": 43
  },
  {
    "start": 144.834,
    "pitch": 36,
    "velocity": 85
  },
  {
    "start": 144.985,
    "pitch": 36,
    "velocity": 66
  },
  {
    "start": 144.985,
    "pitch": 71,
    "velocity": 71
  },
  {
    "start": 145.149,
    "pitch": 71,
    "velocity": 69
  },
  {
    "start": 145.311,
    "pitch": 36,
    "velocity": 71
  },
  {
    "start": 145.451,
    "pitch": 36,
    "velocity": 71
  },
  {
    "start": 145.474,
    "pitch": 62,
    "velocity": 36
  },
  {
    "start": 145.625,
    "pitch": 62,
    "velocity": 57
  },
  {
    "start": 145.788,
    "pitch": 38,
    "velocity": 90
  },
  {
    "start": 145.95,
    "pitch": 38,
    "velocity": 68
  },
  {
    "start": 146.158,
    "pitch": 66,
    "velocity": 62
  },
  {
    "start": 146.298,
    "pitch": 38,
    "velocity": 84
  },
  {
    "start": 146.309,
    "pitch": 50,
    "velocity": 40
  },
  {
    "start": 146.449,
    "pitch": 38,
    "velocity": 75
  },
  {
    "start": 146.589,
    "pitch": 38,
    "velocity": 62
  },
  {
    "start": 146.879,
    "pitch": 38,
    "velocity": 81
  },
  {
    "start": 146.925,
    "pitch": 74,
    "velocity": 56
  },
  {
    "start": 147.007,
    "pitch": 38,
    "velocity": 46
  },
  {
    "start": 147.089,
    "pitch": 74,
    "velocity": 58
  },
  {
    "start": 147.251,
    "pitch": 38,
    "velocity": 78
  },
  {
    "start": 147.402,
    "pitch": 38,
    "velocity": 74
  },
  {
    "start": 147.565,
    "pitch": 67,
    "velocity": 64
  },
  {
    "start": 147.762,
    "pitch": 31,
    "velocity": 78
  },
  {
    "start": 147.785,
    "pitch": 43,
    "velocity": 48
  },
  {
    "start": 148.052,
    "pitch": 31,
    "velocity": 65
  },
  {
    "start": 148.088,
    "pitch": 71,
    "velocity": 49
  },
  {
    "start": 148.273,
    "pitch": 31,
    "velocity": 74
  },
  {
    "start": 148.691,
    "pitch": 81,
    "velocity": 62
  },
  {
    "start": 148.691,
    "pitch": 30,
    "velocity": 61
  },
  {
    "start": 149.041,
    "pitch": 78,
    "velocity": 60
  },
  {
    "start": 149.377,
    "pitch": 67,
    "velocity": 42
  },
  {
    "start": 149.377,
    "pitch": 79,
    "velocity": 69
  },
  {
    "start": 149.738,
    "pitch": 28,
    "velocity": 54
  },
  {
    "start": 150.085,
    "pitch": 28,
    "velocity": 59
  },
  {
    "start": 150.654,
    "pitch": 28,
    "velocity": 64
  },
  {
    "start": 150.945,
    "pitch": 28,
    "velocity": 58
  },
  {
    "start": 150.993,
    "pitch": 78,
    "velocity": 50
  },
  {
    "start": 151.352,
    "pitch": 64,
    "velocity": 47
  },
  {
    "start": 151.573,
    "pitch": 36,
    "velocity": 74
  },
  {
    "start": 151.607,
    "pitch": 48,
    "velocity": 48
  },
  {
    "start": 151.677,
    "pitch": 52,
    "velocity": 39
  },
  {
    "start": 151.805,
    "pitch": 36,
    "velocity": 53
  },
  {
    "start": 152.002,
    "pitch": 67,
    "velocity": 56
  },
  {
    "start": 152.096,
    "pitch": 48,
    "velocity": 45
  },
  {
    "start": 152.153,
    "pitch": 36,
    "velocity": 77
  },
  {
    "start": 152.293,
    "pitch": 36,
    "velocity": 72
  },
  {
    "start": 152.559,
    "pitch": 84,
    "velocity": 53
  },
  {
    "start": 152.559,
    "pitch": 72,
    "velocity": 69
  },
  {
    "start": 152.653,
    "pitch": 36,
    "velocity": 83
  },
  {
    "start": 152.769,
    "pitch": 71,
    "velocity": 64
  },
  {
    "start": 152.792,
    "pitch": 36,
    "velocity": 69
  },
  {
    "start": 152.954,
    "pitch": 71,
    "velocity": 68
  },
  {
    "start": 153.223,
    "pitch": 36,
    "velocity": 72
  },
  {
    "start": 153.444,
    "pitch": 50,
    "velocity": 54
  },
  {
    "start": 153.444,
    "pitch": 62,
    "velocity": 60
  },
  {
    "start": 153.595,
    "pitch": 38,
    "velocity": 76
  },
  {
    "start": 153.954,
    "pitch": 66,
    "velocity": 63
  },
  {
    "start": 154.094,
    "pitch": 38,
    "velocity": 76
  },
  {
    "start": 154.245,
    "pitch": 38,
    "velocity": 71
  },
  {
    "start": 154.407,
    "pitch": 38,
    "velocity": 56
  },
  {
    "start": 154.604,
    "pitch": 38,
    "velocity": 78
  },
  {
    "start": 154.709,
    "pitch": 74,
    "velocity": 45
  },
  {
    "start": 154.744,
    "pitch": 38,
    "velocity": 70
  },
  {
    "start": 154.929,
    "pitch": 74,
    "velocity": 67
  },
  {
    "start": 155.035,
    "pitch": 38,
    "velocity": 62
  },
  {
    "start": 155.198,
    "pitch": 38,
    "velocity": 73
  },
  {
    "start": 155.534,
    "pitch": 67,
    "velocity": 68
  },
  {
    "start": 155.57,
    "pitch": 43,
    "velocity": 52
  },
  {
    "start": 155.57,
    "pitch": 31,
    "velocity": 78
  },
  {
    "start": 155.848,
    "pitch": 31,
    "velocity": 75
  },
  {
    "start": 155.906,
    "pitch": 71,
    "velocity": 73
  },
  {
    "start": 155.999,
    "pitch": 43,
    "velocity": 47
  },
  {
    "start": 156.196,
    "pitch": 31,
    "velocity": 63
  },
  {
    "start": 156.498,
    "pitch": 30,
    "velocity": 64
  },
  {
    "start": 156.649,
    "pitch": 78,
    "velocity": 68
  },
  {
    "start": 157.184,
    "pitch": 79,
    "velocity": 71
  },
  {
    "start": 157.521,
    "pitch": 28,
    "velocity": 53
  },
  {
    "start": 157.776,
    "pitch": 28,
    "velocity": 54
  },
  {
    "start": 158.45,
    "pitch": 74,
    "velocity": 54
  },
  {
    "start": 158.461,
    "pitch": 40,
    "velocity": 60
  },
  {
    "start": 158.496,
    "pitch": 28,
    "velocity": 65
  },
  {
    "start": 158.635,
    "pitch": 74,
    "velocity": 73
  },
  {
    "start": 158.927,
    "pitch": 69,
    "velocity": 69
  },
  {
    "start": 159.415,
    "pitch": 36,
    "velocity": 72
  },
  {
    "start": 159.577,
    "pitch": 36,
    "velocity": 69
  },
  {
    "start": 159.914,
    "pitch": 36,
    "velocity": 66
  },
  {
    "start": 159.926,
    "pitch": 69,
    "velocity": 57
  },
  {
    "start": 160.065,
    "pitch": 36,
    "velocity": 72
  },
  {
    "start": 160.274,
    "pitch": 69,
    "velocity": 49
  },
  {
    "start": 160.541,
    "pitch": 48,
    "velocity": 31
  },
  {
    "start": 160.552,
    "pitch": 36,
    "velocity": 74
  },
  {
    "start": 161.053,
    "pitch": 36,
    "velocity": 65
  },
  {
    "start": 161.401,
    "pitch": 69,
    "velocity": 41
  },
  {
    "start": 161.414,
    "pitch": 38,
    "velocity": 74
  },
  {
    "start": 161.552,
    "pitch": 69,
    "velocity": 56
  },
  {
    "start": 161.726,
    "pitch": 69,
    "velocity": 52
  },
  {
    "start": 161.866,
    "pitch": 69,
    "velocity": 47
  },
  {
    "start": 161.889,
    "pitch": 50,
    "velocity": 44
  },
  {
    "start": 161.912,
    "pitch": 38,
    "velocity": 78
  },
  {
    "start": 162.052,
    "pitch": 69,
    "velocity": 65
  },
  {
    "start": 162.191,
    "pitch": 38,
    "velocity": 53
  },
  {
    "start": 162.389,
    "pitch": 38,
    "velocity": 82
  },
  {
    "start": 162.551,
    "pitch": 38,
    "velocity": 63
  },
  {
    "start": 163.017,
    "pitch": 50,
    "velocity": 52
  },
  {
    "start": 163.028,
    "pitch": 38,
    "velocity": 70
  },
  {
    "start": 163.249,
    "pitch": 31,
    "velocity": 78
  },
  {
    "start": 163.342,
    "pitch": 69,
    "velocity": 61
  },
  {
    "start": 163.655,
    "pitch": 31,
    "velocity": 72
  },
  {
    "start": 163.678,
    "pitch": 69,
    "velocity": 37
  },
  {
    "start": 163.829,
    "pitch": 69,
    "velocity": 49
  },
  {
    "start": 164.19,
    "pitch": 69,
    "velocity": 51
  },
  {
    "start": 164.375,
    "pitch": 30,
    "velocity": 63
  },
  {
    "start": 165.328,
    "pitch": 28,
    "velocity": 53
  },
  {
    "start": 165.456,
    "pitch": 69,
    "velocity": 39
  },
  {
    "start": 165.7,
    "pitch": 28,
    "velocity": 56
  },
  {
    "start": 165.793,
    "pitch": 69,
    "velocity": 81
  },
  {
    "start": 165.955,
    "pitch": 69,
    "velocity": 78
  },
  {
    "start": 166.303,
    "pitch": 28,
    "velocity": 59
  },
  {
    "start": 166.454,
    "pitch": 69,
    "velocity": 43
  },
  {
    "start": 166.803,
    "pitch": 67,
    "velocity": 58
  },
  {
    "start": 167.082,
    "pitch": 64,
    "velocity": 50
  },
  {
    "start": 167.175,
    "pitch": 36,
    "velocity": 66
  },
  {
    "start": 167.407,
    "pitch": 36,
    "velocity": 55
  },
  {
    "start": 167.57,
    "pitch": 79,
    "velocity": 38
  },
  {
    "start": 167.581,
    "pitch": 67,
    "velocity": 45
  },
  {
    "start": 167.664,
    "pitch": 48,
    "velocity": 51
  },
  {
    "start": 167.802,
    "pitch": 36,
    "velocity": 76
  },
  {
    "start": 168.185,
    "pitch": 84,
    "velocity": 54
  },
  {
    "start": 168.255,
    "pitch": 36,
    "velocity": 86
  },
  {
    "start": 168.395,
    "pitch": 71,
    "velocity": 39
  },
  {
    "start": 168.406,
    "pitch": 36,
    "velocity": 67
  },
  {
    "start": 168.557,
    "pitch": 48,
    "velocity": 38
  },
  {
    "start": 168.569,
    "pitch": 71,
    "velocity": 62
  },
  {
    "start": 168.859,
    "pitch": 36,
    "velocity": 59
  },
  {
    "start": 169.057,
    "pitch": 62,
    "velocity": 62
  },
  {
    "start": 169.081,
    "pitch": 50,
    "velocity": 46
  },
  {
    "start": 169.208,
    "pitch": 38,
    "velocity": 72
  },
  {
    "start": 169.569,
    "pitch": 66,
    "velocity": 55
  },
  {
    "start": 169.696,
    "pitch": 38,
    "velocity": 74
  },
  {
    "start": 169.696,
    "pitch": 50,
    "velocity": 43
  },
  {
    "start": 169.858,
    "pitch": 38,
    "velocity": 64
  },
  {
    "start": 170.056,
    "pitch": 38,
    "velocity": 60
  },
  {
    "start": 170.195,
    "pitch": 38,
    "velocity": 81
  },
  {
    "start": 170.323,
    "pitch": 74,
    "velocity": 45
  },
  {
    "start": 170.346,
    "pitch": 38,
    "velocity": 76
  },
  {
    "start": 170.532,
    "pitch": 74,
    "velocity": 63
  },
  {
    "start": 170.544,
    "pitch": 38,
    "velocity": 43
  },
  {
    "start": 170.683,
    "pitch": 38,
    "velocity": 72
  },
  {
    "start": 170.847,
    "pitch": 38,
    "velocity": 68
  },
  {
    "start": 171.032,
    "pitch": 67,
    "velocity": 60
  },
  {
    "start": 171.068,
    "pitch": 43,
    "velocity": 62
  },
  {
    "start": 171.149,
    "pitch": 31,
    "velocity": 72
  },
  {
    "start": 171.52,
    "pitch": 71,
    "velocity": 72
  },
  {
    "start": 171.648,
    "pitch": 43,
    "velocity": 43
  },
  {
    "start": 171.81,
    "pitch": 31,
    "velocity": 71
  },
  {
    "start": 172.124,
    "pitch": 30,
    "velocity": 60
  },
  {
    "start": 172.251,
    "pitch": 78,
    "velocity": 76
  },
  {
    "start": 172.46,
    "pitch": 78,
    "velocity": 51
  },
  {
    "start": 172.751,
    "pitch": 78,
    "velocity": 63
  },
  {
    "start": 172.926,
    "pitch": 79,
    "velocity": 61
  },
  {
    "start": 173.111,
    "pitch": 67,
    "velocity": 46
  },
  {
    "start": 173.158,
    "pitch": 28,
    "velocity": 40
  },
  {
    "start": 173.542,
    "pitch": 28,
    "velocity": 53
  },
  {
    "start": 173.75,
    "pitch": 79,
    "velocity": 63
  },
  {
    "start": 173.925,
    "pitch": 79,
    "velocity": 61
  },
  {
    "start": 174.11,
    "pitch": 28,
    "velocity": 55
  },
  {
    "start": 175.494,
    "pitch": 52,
    "velocity": 75
  },
  {
    "start": 175.551,
    "pitch": 64,
    "velocity": 55
  },
  {
    "start": 175.551,
    "pitch": 48,
    "velocity": 58
  },
  {
    "start": 175.621,
    "pitch": 55,
    "velocity": 48
  },
  {
    "start": 175.725,
    "pitch": 60,
    "velocity": 50
  },
  {
    "start": 175.725,
    "pitch": 43,
    "velocity": 40
  },
  {
    "start": 175.795,
    "pitch": 55,
    "velocity": 60
  },
  {
    "start": 175.806,
    "pitch": 64,
    "velocity": 46
  },
  {
    "start": 176.039,
    "pitch": 64,
    "velocity": 50
  },
  {
    "start": 176.214,
    "pitch": 55,
    "velocity": 63
  },
  {
    "start": 176.376,
    "pitch": 60,
    "velocity": 43
  },
  {
    "start": 176.388,
    "pitch": 55,
    "velocity": 58
  },
  {
    "start": 176.515,
    "pitch": 67,
    "velocity": 40
  },
  {
    "start": 176.608,
    "pitch": 60,
    "velocity": 48
  },
  {
    "start": 176.608,
    "pitch": 55,
    "velocity": 63
  },
  {
    "start": 176.83,
    "pitch": 50,
    "velocity": 49
  },
  {
    "start": 176.83,
    "pitch": 62,
    "velocity": 32
  },
  {
    "start": 176.842,
    "pitch": 69,
    "velocity": 57
  },
  {
    "start": 176.853,
    "pitch": 55,
    "velocity": 62
  },
  {
    "start": 176.888,
    "pitch": 43,
    "velocity": 56
  },
  {
    "start": 176.993,
    "pitch": 50,
    "velocity": 57
  },
  {
    "start": 177.004,
    "pitch": 62,
    "velocity": 59
  },
  {
    "start": 177.061,
    "pitch": 47,
    "velocity": 63
  },
  {
    "start": 177.178,
    "pitch": 71,
    "velocity": 73
  },
  {
    "start": 177.178,
    "pitch": 62,
    "velocity": 57
  },
  {
    "start": 177.178,
    "pitch": 55,
    "velocity": 57
  },
  {
    "start": 177.329,
    "pitch": 71,
    "velocity": 57
  },
  {
    "start": 177.341,
    "pitch": 59,
    "velocity": 44
  },
  {
    "start": 177.41,
    "pitch": 62,
    "velocity": 48
  },
  {
    "start": 177.433,
    "pitch": 55,
    "velocity": 55
  },
  {
    "start": 177.503,
    "pitch": 59,
    "velocity": 36
  },
  {
    "start": 177.503,
    "pitch": 71,
    "velocity": 46
  },
  {
    "start": 177.503,
    "pitch": 47,
    "velocity": 60
  },
  {
    "start": 177.817,
    "pitch": 62,
    "velocity": 49
  },
  {
    "start": 177.886,
    "pitch": 55,
    "velocity": 50
  },
  {
    "start": 177.979,
    "pitch": 71,
    "velocity": 46
  },
  {
    "start": 177.991,
    "pitch": 62,
    "velocity": 43
  },
  {
    "start": 178.002,
    "pitch": 59,
    "velocity": 46
  },
  {
    "start": 178.153,
    "pitch": 62,
    "velocity": 37
  },
  {
    "start": 178.153,
    "pitch": 55,
    "velocity": 76
  },
  {
    "start": 178.316,
    "pitch": 62,
    "velocity": 60
  },
  {
    "start": 178.316,
    "pitch": 55,
    "velocity": 81
  },
  {
    "start": 178.467,
    "pitch": 67,
    "velocity": 55
  },
  {
    "start": 178.478,
    "pitch": 62,
    "velocity": 54
  },
  {
    "start": 178.478,
    "pitch": 55,
    "velocity": 80
  },
  {
    "start": 178.478,
    "pitch": 59,
    "velocity": 39
  },
  {
    "start": 178.618,
    "pitch": 62,
    "velocity": 50
  },
  {
    "start": 178.629,
    "pitch": 55,
    "velocity": 70
  },
  {
    "start": 178.793,
    "pitch": 69,
    "velocity": 52
  },
  {
    "start": 178.805,
    "pitch": 62,
    "velocity": 53
  },
  {
    "start": 178.805,
    "pitch": 57,
    "velocity": 53
  },
  {
    "start": 178.805,
    "pitch": 50,
    "velocity": 60
  },
  {
    "start": 178.955,
    "pitch": 62,
    "velocity": 65
  },
  {
    "start": 178.955,
    "pitch": 45,
    "velocity": 37
  },
  {
    "start": 178.979,
    "pitch": 54,
    "velocity": 45
  },
  {
    "start": 179.118,
    "pitch": 62,
    "velocity": 43
  },
  {
    "start": 179.13,
    "pitch": 71,
    "velocity": 84
  },
  {
    "start": 179.28,
    "pitch": 71,
    "velocity": 51
  },
  {
    "start": 179.293,
    "pitch": 50,
    "velocity": 50
  },
  {
    "start": 179.339,
    "pitch": 62,
    "velocity": 53
  },
  {
    "start": 179.385,
    "pitch": 57,
    "velocity": 44
  },
  {
    "start": 179.42,
    "pitch": 45,
    "velocity": 44
  },
  {
    "start": 179.618,
    "pitch": 62,
    "velocity": 77
  },
  {
    "start": 179.756,
    "pitch": 62,
    "velocity": 55
  },
  {
    "start": 179.78,
    "pitch": 66,
    "velocity": 53
  },
  {
    "start": 179.931,
    "pitch": 71,
    "velocity": 62
  },
  {
    "start": 180.035,
    "pitch": 66,
    "velocity": 48
  },
  {
    "start": 180.105,
    "pitch": 62,
    "velocity": 38
  },
  {
    "start": 180.198,
    "pitch": 45,
    "velocity": 56
  },
  {
    "start": 180.279,
    "pitch": 50,
    "velocity": 43
  },
  {
    "start": 180.407,
    "pitch": 67,
    "velocity": 47
  },
  {
    "start": 180.419,
    "pitch": 62,
    "velocity": 42
  },
  {
    "start": 180.581,
    "pitch": 67,
    "velocity": 63
  },
  {
    "start": 180.593,
    "pitch": 62,
    "velocity": 63
  },
  {
    "start": 180.64,
    "pitch": 57,
    "velocity": 53
  },
  {
    "start": 180.755,
    "pitch": 69,
    "velocity": 50
  },
  {
    "start": 180.755,
    "pitch": 52,
    "velocity": 70
  },
  {
    "start": 180.767,
    "pitch": 64,
    "velocity": 33
  },
  {
    "start": 180.767,
    "pitch": 59,
    "velocity": 44
  },
  {
    "start": 180.849,
    "pitch": 55,
    "velocity": 50
  },
  {
    "start": 180.919,
    "pitch": 64,
    "velocity": 55
  },
  {
    "start": 180.943,
    "pitch": 47,
    "velocity": 57
  },
  {
    "start": 181.024,
    "pitch": 67,
    "velocity": 44
  },
  {
    "start": 181.081,
    "pitch": 64,
    "velocity": 53
  },
  {
    "start": 181.081,
    "pitch": 71,
    "velocity": 61
  },
  {
    "start": 181.244,
    "pitch": 64,
    "velocity": 53
  },
  {
    "start": 181.336,
    "pitch": 59,
    "velocity": 48
  },
  {
    "start": 181.395,
    "pitch": 64,
    "velocity": 43
  },
  {
    "start": 181.406,
    "pitch": 67,
    "velocity": 41
  },
  {
    "start": 181.488,
    "pitch": 59,
    "velocity": 58
  },
  {
    "start": 181.708,
    "pitch": 64,
    "velocity": 50
  },
  {
    "start": 181.72,
    "pitch": 67,
    "velocity": 53
  },
  {
    "start": 181.964,
    "pitch": 67,
    "velocity": 58
  },
  {
    "start": 182.069,
    "pitch": 64,
    "velocity": 50
  },
  {
    "start": 182.22,
    "pitch": 59,
    "velocity": 39
  },
  {
    "start": 182.231,
    "pitch": 67,
    "velocity": 36
  },
  {
    "start": 182.37,
    "pitch": 67,
    "velocity": 68
  },
  {
    "start": 182.464,
    "pitch": 59,
    "velocity": 43
  },
  {
    "start": 182.532,
    "pitch": 67,
    "velocity": 68
  },
  {
    "start": 182.707,
    "pitch": 69,
    "velocity": 58
  },
  {
    "start": 182.707,
    "pitch": 64,
    "velocity": 42
  },
  {
    "start": 182.707,
    "pitch": 48,
    "velocity": 58
  },
  {
    "start": 182.848,
    "pitch": 69,
    "velocity": 52
  },
  {
    "start": 182.871,
    "pitch": 64,
    "velocity": 48
  },
  {
    "start": 183.022,
    "pitch": 64,
    "velocity": 53
  },
  {
    "start": 183.022,
    "pitch": 52,
    "velocity": 69
  },
  {
    "start": 183.033,
    "pitch": 71,
    "velocity": 50
  },
  {
    "start": 183.289,
    "pitch": 64,
    "velocity": 48
  },
  {
    "start": 183.3,
    "pitch": 60,
    "velocity": 48
  },
  {
    "start": 183.475,
    "pitch": 55,
    "velocity": 44
  },
  {
    "start": 183.498,
    "pitch": 64,
    "velocity": 43
  },
  {
    "start": 183.498,
    "pitch": 52,
    "velocity": 73
  },
  {
    "start": 183.532,
    "pitch": 43,
    "velocity": 37
  },
  {
    "start": 183.66,
    "pitch": 60,
    "velocity": 41
  },
  {
    "start": 183.742,
    "pitch": 64,
    "velocity": 42
  },
  {
    "start": 183.811,
    "pitch": 52,
    "velocity": 68
  },
  {
    "start": 184.02,
    "pitch": 60,
    "velocity": 72
  },
  {
    "start": 184.044,
    "pitch": 64,
    "velocity": 47
  },
  {
    "start": 184.148,
    "pitch": 55,
    "velocity": 58
  },
  {
    "start": 184.159,
    "pitch": 60,
    "velocity": 67
  },
  {
    "start": 184.182,
    "pitch": 64,
    "velocity": 52
  },
  {
    "start": 184.333,
    "pitch": 55,
    "velocity": 47
  },
  {
    "start": 184.403,
    "pitch": 64,
    "velocity": 55
  },
  {
    "start": 184.473,
    "pitch": 55,
    "velocity": 65
  },
  {
    "start": 184.484,
    "pitch": 52,
    "velocity": 62
  },
  {
    "start": 184.647,
    "pitch": 50,
    "velocity": 46
  },
  {
    "start": 184.658,
    "pitch": 67,
    "velocity": 55
  },
  {
    "start": 184.658,
    "pitch": 69,
    "velocity": 33
  },
  {
    "start": 184.658,
    "pitch": 55,
    "velocity": 48
  },
  {
    "start": 184.81,
    "pitch": 67,
    "velocity": 52
  },
  {
    "start": 184.927,
    "pitch": 62,
    "velocity": 40
  },
  {
    "start": 184.95,
    "pitch": 67,
    "velocity": 53
  },
  {
    "start": 184.961,
    "pitch": 55,
    "velocity": 68
  },
  {
    "start": 184.974,
    "pitch": 59,
    "velocity": 47
  },
  {
    "start": 184.985,
    "pitch": 47,
    "velocity": 54
  },
  {
    "start": 185.112,
    "pitch": 55,
    "velocity": 57
  },
  {
    "start": 185.124,
    "pitch": 67,
    "velocity": 78
  },
  {
    "start": 185.275,
    "pitch": 67,
    "velocity": 67
  },
  {
    "start": 185.438,
    "pitch": 67,
    "velocity": 77
  },
  {
    "start": 185.461,
    "pitch": 59,
    "velocity": 42
  },
  {
    "start": 185.519,
    "pitch": 62,
    "velocity": 40
  },
  {
    "start": 185.624,
    "pitch": 67,
    "velocity": 61
  },
  {
    "start": 185.635,
    "pitch": 50,
    "velocity": 57
  },
  {
    "start": 185.786,
    "pitch": 67,
    "velocity": 61
  },
  {
    "start": 185.856,
    "pitch": 62,
    "velocity": 36
  },
  {
    "start": 185.868,
    "pitch": 47,
    "velocity": 55
  },
  {
    "start": 185.925,
    "pitch": 67,
    "velocity": 76
  },
  {
    "start": 186.111,
    "pitch": 67,
    "velocity": 62
  },
  {
    "start": 186.262,
    "pitch": 67,
    "velocity": 60
  },
  {
    "start": 186.274,
    "pitch": 62,
    "velocity": 40
  },
  {
    "start": 186.425,
    "pitch": 55,
    "velocity": 68
  },
  {
    "start": 186.436,
    "pitch": 67,
    "velocity": 63
  },
  {
    "start": 186.599,
    "pitch": 69,
    "velocity": 32
  },
  {
    "start": 186.61,
    "pitch": 62,
    "velocity": 43
  },
  {
    "start": 186.762,
    "pitch": 66,
    "velocity": 41
  },
  {
    "start": 186.798,
    "pitch": 50,
    "velocity": 45
  },
  {
    "start": 186.821,
    "pitch": 54,
    "velocity": 47
  },
  {
    "start": 187.831,
    "pitch": 57,
    "velocity": 40
  },
  {
    "start": 188.226,
    "pitch": 38,
    "velocity": 38
  },
  {
    "start": 190.258,
    "pitch": 31,
    "velocity": 50
  },
  {
    "start": 190.549,
    "pitch": 32,
    "velocity": 56
  },
  {
    "start": 191.897,
    "pitch": 50,
    "velocity": 41
  },
  {
    "start": 191.897,
    "pitch": 31,
    "velocity": 50
  },
  {
    "start": 191.967,
    "pitch": 36,
    "velocity": 47
  },
  {
    "start": 192.152,
    "pitch": 32,
    "velocity": 75
  }
]